<svg xmlns="http://www.w3.org/2000/svg" id="Capa_1" data-name="Capa 1" viewBox="0 0 714 170.29"><defs><style>.cls-2,.cls-3{stroke-width:0}.cls-2{fill:#50aedd}.cls-3{fill:#51aede}</style></defs><path d="M85.03 124.04c0 4.49.02 8.99-.01 13.48 0 1.18.34 2.53-1.43 2.99-8.31 2.14-16.15 6.29-24.87 6.57-22.27.72-37.57-10.43-48.06-29.17C4.33 106.62 1.48 94.23.5 81.45-.83 64.09.07 46.96 8.37 31.12c9.63-18.41 25-28.38 45.7-29.83 5.47-.38 10.9 1.05 16.27 2.14 3.91.79 7.74 1.95 11.66 2.68 2.25.42 3.12 1.31 3.09 3.69-.13 8.86-.11 17.73-.01 26.59.03 2.41-.68 2.84-3.06 2.49-6.13-.89-12.21-2.78-18.52-1.44-14.51 3.08-23.65 11.7-26.9 26.25-1.93 8.63-1.2 17.15 2.09 25.33 5.74 14.25 19.79 22.05 35.15 19.73 2.71-.41 5.44-.73 8.14-1.19 2.17-.38 3.21.13 3.12 2.63-.17 4.61-.05 9.24-.05 13.86ZM299.79 102.13c-8.62 0-17.25.12-25.87-.06-3.38-.07-3.18 1.13-1.83 3.36 3.69 6.07 9.73 7.79 16.17 8.79 9.55 1.49 18.94.03 28.25-1.82 3.05-.61 3.56.26 3.98 2.89.92 5.78 2.07 11.54 3.37 17.25.56 2.48-.2 3.69-2.44 4.55-5.53 2.13-11.29 3.18-17.14 3.68-13.21 1.13-26.19.21-38.69-4.62-10.98-4.24-18.4-11.83-21.49-23.28-4.54-16.83-4.04-33.4 3.77-49.23 8.59-17.4 25.06-23.55 42.32-21.79 24.23 2.46 35.04 18.64 38.38 38.93.98 5.95.76 11.94.84 17.93.04 2.9-1.07 3.53-3.76 3.48-8.62-.16-17.25-.06-25.87-.06Zm-14.84-21.47c4.24 0 8.48-.07 12.71.03 2.27.05 2.85-.73 2.16-2.9-2.07-6.56-7.71-10.86-14.49-10.89-7.12-.03-12.57 4.1-14.81 10.93-.75 2.28-.14 2.9 2.09 2.85 4.11-.08 8.22-.02 12.34-.02ZM618.58 44.44c9.76 0 19.49.05 29.23-.04 2.4-.02 2.44 1.74 2.9 3.2 5.12 16.43 10.2 32.87 15.3 49.3.26.82.56 1.63 1.13 3.29 1.77-5.6 3.33-10.45 4.84-15.31 3.86-12.51 7.69-25.03 11.57-37.53.41-1.32.44-2.97 2.67-2.95 9.11.09 18.22.04 27.79.04-2.33 6.83-4.5 13.29-6.73 19.73-8.49 24.51-16.76 49.1-25.6 73.48-3.58 9.88-8.58 19.18-17.55 25.57-6.96 4.95-14.73 7.39-23.21 7.03-6.59-.28-13.2-.8-19.7-2.1-2.35-.47-3.35-1.18-2.61-3.97 1.59-6.02 2.75-12.15 3.95-18.27.4-2.06 1.01-2.69 3.23-1.98 4.79 1.52 9.7 2.25 14.75 1.06 3.24-.77 6.11-2.14 8.54-4.4 4.49-4.19 4.9-6.11 2.64-11.76-10.61-26.52-21.23-53.04-31.8-79.57-.58-1.46-1.51-2.87-1.32-4.81ZM339.13 93c0-14.24.07-28.48-.06-42.72-.02-2.74.68-3.96 3.54-4.45 8.88-1.52 17.83-2.19 26.79-2.78 8.2-.54 16.4-1.7 24.6.34 14.58 3.63 24.49 15 26.85 30.74.84 5.61.53 11.21.55 16.82.06 15.12-.04 30.23.08 45.35.02 2.6-.7 3.45-3.35 3.39-7.62-.16-15.25-.18-22.87 0-2.8.07-3.61-.72-3.59-3.55.13-17.74.07-35.48.06-53.22 0-8.94-2.84-12.3-11.71-13.91-.49-.09-.97-.24-1.46-.32-8.86-1.42-9.48-.89-9.48 8 0 19.74-.06 39.48.06 59.22.02 2.88-.65 3.88-3.7 3.79-7.74-.23-15.5-.17-23.24-.02-2.52.05-3.14-.81-3.12-3.21.1-14.49.05-28.98.05-43.47Z" class="cls-2"/><path d="M547.68 88.31c0-14.86-.19-29.73.05-44.59.23-14 4.03-26.64 15.63-35.74 6.86-5.38 15.01-6.51 23.35-6.52 8.53-.01 16.86 1.55 25.07 3.89 2.43.69 3.21 1.52 2.32 4.08-2.07 6.01-3.96 12.09-5.72 18.19-.64 2.22-1.34 2.69-3.56 1.72-5.4-2.36-10.95-4.23-17.02-2.94-6.48 1.38-12.25 9.83-11.16 16.26.37 2.18 1.91 1.6 3.15 1.61 8.62.04 17.24.13 25.86-.04 2.79-.06 3.68.73 3.59 3.56-.2 6.24-.19 12.49 0 18.73.08 2.74-.64 3.69-3.52 3.62-8.24-.19-16.49.05-24.74-.13-2.8-.06-3.6.75-3.58 3.57.12 20.73 0 41.47.14 62.2.02 3.18-.91 3.99-3.99 3.91-7.49-.22-14.99-.18-22.49-.01-2.68.06-3.35-.84-3.34-3.41.1-15.99.05-31.98.05-47.96h-.09Z" class="cls-3"/><path d="M475.11 69.38c-4.12 0-8.25.06-12.37-.02-2.05-.04-2.88.65-2.87 2.8.08 10.61-.1 21.23.1 31.84.13 6.8 4.76 11.15 11.74 11.69 5.45.42 10.71-.65 15.81-2.37 2.14-.72 3.14-.6 3.52 1.86.98 6.28 2.11 12.53 3.21 18.79.29 1.68-.03 2.81-1.87 3.44-13.9 4.74-27.91 5.47-41.84.56-11.59-4.09-16.76-13.55-19.09-24.91-1.03-5.01-1.44-10.12-1.48-15.25-.2-23.84.28-47.7-.7-71.53-.11-2.61.57-3.82 3.27-4.23 8.13-1.25 16.25-2.61 24.32-4.16 2.31-.44 2.85.15 2.82 2.32-.08 6.99.07 13.99-.08 20.98-.06 2.58.67 3.46 3.34 3.41 8.12-.16 16.24.05 24.36-.12 2.68-.06 3.39.8 3.32 3.39-.17 6.24-.12 12.49-.02 18.73.03 2.07-.58 2.9-2.74 2.83-4.24-.13-8.49-.04-12.74-.04ZM146.19 60.17c0-17.23.06-34.46-.06-51.68-.02-2.64.68-3.64 3.38-4.06 7.5-1.18 14.97-2.62 22.41-4.2 2.97-.63 3.74.03 3.72 3.12-.12 26.72-.07 53.43-.07 80.15 0 6.74-.02 13.48-.01 20.22.01 7.52 3.52 11.8 10.95 12.57 2.81.29 2.97 1.45 2.56 3.55-1.23 6.36-2.52 12.71-3.63 19.09-.3 1.73-1.05 2.18-2.67 2.34-18.02 1.81-31.96-7.78-36.02-24.97-.45-1.92-.53-3.96-.54-5.94-.04-16.73-.02-33.46-.02-50.19Z" class="cls-2"/><path d="M231.02 92.08c0 14.74-.06 29.47.05 44.21.02 2.58-.65 3.46-3.33 3.4-7.99-.17-15.99-.17-23.98 0-2.68.06-3.34-.82-3.33-3.4.08-29.47.09-58.94 0-88.41 0-2.72.63-3.71 3.52-3.64 7.86.2 15.74.19 23.61 0 2.89-.07 3.55.9 3.53 3.63-.12 14.73-.06 29.47-.06 44.21ZM533.99 92.13c0 14.74-.06 29.47.06 44.21.02 2.65-.77 3.4-3.38 3.34-7.99-.16-15.99-.13-23.98-.01-2.34.04-3.29-.48-3.28-3.07.08-29.72.08-59.44 0-89.16 0-2.44.71-3.24 3.2-3.2 7.99.14 15.99.19 23.98-.02 2.98-.08 3.47 1.06 3.45 3.69-.11 14.73-.05 29.47-.05 44.21ZM130.65 33.41c0 3.75-.03 7.49.01 11.24.02 1.71 0 2.72-2.4 2.25-10.16-1.96-20.36-3.7-30.56-5.43-1.79-.3-2.19-1.23-2.19-2.82.03-8.74.04-17.48 0-26.22-.01-1.94.43-2.76 2.6-2.12 10.04 2.98 20.1 5.89 30.18 8.73 1.95.55 2.47 1.6 2.4 3.5-.13 3.62-.04 7.24-.04 10.86ZM95.53 121.37c0-4.24.11-8.48-.05-12.71-.08-2.07.71-2.91 2.65-3.17 9.99-1.31 19.98-2.65 29.96-4.03 1.98-.27 2.62.42 2.59 2.4-.09 7.35-.1 14.71.01 22.06.03 1.87-.69 2.64-2.38 3.06-9.9 2.44-19.8 4.91-29.68 7.46-2.24.58-3.23.18-3.15-2.36.14-4.23.04-8.47.04-12.71Z" class="cls-3"/><path d="M500.97 20c.08-9.96 7.89-17.61 17.94-17.56 9.89.05 17.71 7.92 17.77 17.87.05 9.61-8.17 17.85-17.88 17.92-9.8.07-17.9-8.21-17.83-18.23ZM197.97 20.09c.04-10.02 7.84-17.71 17.91-17.66 9.99.05 17.65 7.86 17.6 17.96-.04 9.82-8.25 17.99-17.91 17.83-9.89-.16-17.65-8.16-17.61-18.13Z" class="cls-2"/><path d="M284.95 80.66c-4.11 0-8.23-.06-12.34.02-2.23.05-2.84-.57-2.09-2.85 2.24-6.83 7.69-10.96 14.81-10.93 6.78.03 12.42 4.33 14.49 10.89.69 2.17.11 2.95-2.16 2.9-4.23-.1-8.47-.03-12.71-.03Z" style="stroke-width:0;fill:#fefefe"/></svg>