<svg xmlns="http://www.w3.org/2000/svg" xml:space="preserve" id="Capa_1" x="0" y="0" style="enable-background:new 0 0 1080 1080" version="1.1" viewBox="0 0 1080 1080"><style>.st0{fill:#ee290e}.st1{fill:#fefefe}</style><path d="M577 436.03c.23.42.45.82.53 1.33 2.21 15.64 4.45 31.28 6.67 46.92 2.04 14.37 4.05 28.74 6.09 43.1 1.79 12.64 3.62 25.27 5.41 37.91 2.04 14.41 4.06 28.82 6.1 43.22 1.53 10.83 3.11 21.65 4.6 32.48.12.91.71 2.05-.38 2.88-2.96-.01-5.91-.04-8.87-.01-.93.01-1.3-.31-1.43-1.27-.63-4.91-1.33-9.81-1.99-14.71-.11-.79-.28-1.23-1.27-1.18-1.87.11-3.75.12-5.62 0-1.18-.08-1.43.41-1.57 1.43-.65 4.74-1.38 9.46-2.07 14.19-.09.61-.19 1.21-.68 1.66h-9.75c-.45-.48-.53-1.01-.41-1.68 2.75-15.68 5.46-31.37 8.19-47.05 1.08-6.22 2.18-12.44 3.24-18.67.15-.88.56-1.26 1.42-1.12 1.25.2 1.37-.3 1.2-1.45-1.51-10.33-2.94-20.67-4.41-31.01-1.41-9.92-2.83-19.85-4.22-29.77-.1-.69-.28-.81-.94-.56-8.55 3.2-17.46 4.07-26.49 4.03-4.12-.02-8.23-.28-12.34-.51-.91-.05-1.06.2-.94 1 .54 3.7.99 7.42 1.59 11.12.18 1.09-.08 1.22-1.08 1.14-7.8-.61-15.6-1.18-23.44-1.05-11.09.18-21.75 2.13-31.48 7.78-.1.06-.24.07-.35.1-.04-.05-.08-.09-.12-.13 1.76-5.89 3.88-11.66 5.99-17.43 2.81-7.64 5.8-15.21 9.06-22.67.37-.84.26-1.38-.33-2.09-7.6-9.06-15.46-17.88-24.15-25.94-.09-.08-.13-.2-.23-.37 4.18-2.5 8.6-4.33 13.26-5.62 7.04-1.94 14.23-2.57 21.5-2.47 1.02.01 1.33-.12 1.14-1.27-.61-3.69-1.03-7.41-1.61-11.11-.19-1.22.53-1.04 1.23-1.02 6.03.17 12.05.61 18.06 1.02 9.39.64 18.78 1.14 28.16-.15 4.34-.6 8.57-1.62 12.7-3.08.76-.27.94-.65.81-1.38-.21-1.23-.3-2.48-.54-3.7-.21-1.07.1-1.5 1.21-1.61 2.56-.27 5.11-.66 7.67-1.01.14-.02.28-.14.41-.21.14-.01.3-.01.47-.01zm-7.98 15.67c-9.07 3.5-18.4 4.36-27.85 4.26-7.82-.08-15.62-.79-23.43-1.3-1.66-.11-1.62-.13-1.39 1.53 1.06 7.49 2.11 14.99 3.15 22.49 1.27 9.19 2.54 18.38 3.78 27.57.11.79.47.97 1.22 1.01 3.2.16 6.4.39 9.59.61 8.81.61 17.61 1.11 26.43.15 5.14-.56 10.18-1.62 15.03-3.44.5-.19.96-.24.83-1.07-.64-4.11-1.18-8.23-1.77-12.35l-3.87-27.3c-.56-4-1.13-7.99-1.72-12.16zm-46.84 68.38c-1.74-1.55-3.44-3.14-5.23-4.62-.57-.47-.81-.99-.9-1.66-.5-3.67-1.01-7.33-1.51-11-1.58-11.41-3.17-22.82-4.73-34.23-.09-.65-.25-.93-.97-.93-6.76-.03-13.46.45-20.07 2-1.19.28-1.08.56-.4 1.33 6.33 7.18 12.33 14.64 18.25 22.17.51.65.55 1.12.2 1.86-3.57 7.59-6.97 15.26-10.16 23.02-.59 1.44-1.16 2.88-1.83 4.54 9.13-2.41 18.2-2.5 27.35-2.48zm67.69 79.15c-.08 0-.16.01-.24.01-.09.57-.19 1.14-.27 1.71-.76 5.05-1.51 10.1-2.29 15.15-.11.69.09.87.75.85 1.16-.04 2.33-.06 3.49 0 .81.04.98-.2.85-.99-.36-2.25-.63-4.52-.94-6.79l-1.35-9.94zM711.23 643.82c-.51-.31-.5-.8-.5-1.32 0-21.9.01-43.81-.01-65.71 0-1.04.33-1.37 1.37-1.36 5.91.04 11.83.02 17.74.02 1.3 0 2.57.18 3.81.57 3.24 1.04 5.25 3.6 5.31 7.37.11 7.78.13 15.57-.02 23.36-.08 4.4-2.25 6.68-6.52 7.55-.48.1-1.04 0-.75.94 2.74 8.98 5.41 17.97 8.11 26.96.03.1.15.18.22.28 0 .42-.01.83 0 1.25.02.49-.35.15-.5.25-.39-.23-.81-.13-1.22-.13-2.75-.01-5.5-.03-8.25.01-.91.01-1.31-.32-1.54-1.21-.79-3.05-1.66-6.09-2.51-9.13l-4.56-16.27c-.07.01-.14.01-.2.02v1.3c0 7.91-.02 15.83.02 23.74 0 1.11-.3 1.58-1.48 1.55-2.86-.07-5.69-.03-8.52-.04zm9.96-48.83c0 2.87.02 5.75-.01 8.62-.01.73.13 1.04.95 1.01 1.83-.06 3.66-.05 5.5 0 .78.02.99-.27.99-1.01-.02-5.75-.02-11.49 0-17.24 0-.75-.22-1.03-.99-1.01-1.79.05-3.58.07-5.37-.01-.93-.04-1.09.32-1.07 1.15.03 2.83 0 5.66 0 8.49zM493.51 643.97c-.45-.42-.55-.94-.55-1.55.01-21.86.02-43.72-.01-65.59 0-1.12.36-1.42 1.44-1.41 5.62.05 11.24.05 16.87 0 1.14-.01 1.56.33 1.53 1.5-.07 2.29-.08 4.58 0 6.87.04 1.19-.42 1.5-1.54 1.47-2.29-.07-4.58.01-6.87-.04-.73-.01-1.02.12-1.01.94.04 5.66.03 11.33 0 16.99 0 .79.26.99 1.01.97 2.33-.04 4.66.01 7-.03 1.01-.02 1.43.35 1.41 1.39-.05 2.41-.04 4.83 0 7.25.02.97-.32 1.33-1.31 1.31-2.37-.05-4.75.01-7.12-.03-.78-.02-.98.25-.98 1 .02 6 .03 11.99 0 17.99 0 .8.28.97 1.02.96 2.37-.04 4.75.01 7.12-.03.9-.01 1.28.31 1.27 1.23-.03 2.46-.03 4.91.01 7.37.01.59-.23 1.01-.52 1.45-6.27-.01-12.52-.01-18.77-.01zM462.76 643.97c-.43-.38-.55-.84-.55-1.42.01-22.11.02-44.22 0-66.33 0-.95.36-1.22 1.25-1.21 2.5.04 5 .08 7.49-.01 1.26-.04 1.63.33 1.63 1.61-.04 18.57-.03 37.14-.02 55.71 0 1.82-.25 1.59 1.58 1.6 2.46.01 4.91.03 7.37-.01.91-.01 1.28.32 1.26 1.24-.03 2.5-.03 5 .01 7.49.01.55-.24.92-.52 1.32-6.5.01-13 .01-19.5.01zM340.03 575.74c.42-.35.93-.29 1.42-.29 2.45 0 4.91.07 7.36-.03 1.3-.05 1.61.41 1.6 1.64-.04 17.43-.02 34.86-.02 52.3 0 1.21.04 2.41-.01 3.62-.03.77.24.99 1 .98 2.58-.04 5.16.02 7.74-.04 1.06-.02 1.5.28 1.47 1.41-.07 2.41-.03 4.83-.01 7.24.01.57-.09 1.05-.55 1.41-6.33 0-12.67-.02-19 .03-.86.01-1.03-.17-1.02-1.02.03-22.43.02-44.84.02-67.25z" class="st0"/><path d="M582.5 643.97c.49-.44.59-1.05.68-1.66.7-4.73 1.42-9.46 2.07-14.19.14-1.01.39-1.51 1.57-1.43 1.87.12 3.75.11 5.62 0 .99-.06 1.17.39 1.27 1.18.66 4.91 1.36 9.8 1.99 14.71.12.96.5 1.28 1.43 1.27 2.96-.03 5.91 0 8.87.01v.11h-23.5zM711.23 643.82c2.83.01 5.67-.03 8.5.04 1.18.03 1.49-.44 1.48-1.55-.03-7.91-.02-15.83-.02-23.74v-1.3c.07-.01.14-.01.2-.02l4.56 16.27c.85 3.04 1.72 6.07 2.51 9.13.23.89.63 1.22 1.54 1.21 2.75-.04 5.5-.02 8.25-.01.41 0 .84-.1 1.22.13h-28.25c.01-.06.01-.11.01-.16zM636.99 643.79v.18h-19.75v-.17c6.58 0 13.17 0 19.75-.01zM647.99 643.97v-.17c6.58 0 13.17-.01 19.75-.01v.18h-19.75zM697.73 643.79v.19h-19v-.18c6.34-.01 12.67-.01 19-.01z" class="st1"/><path d="M433.27 614.36c0-9.29-.02-18.57.03-27.86.01-1.04-.24-1.34-1.29-1.29-1.87.09-3.75-.01-5.62.04-.95.03-1.36-.26-1.34-1.27.05-2.46.04-4.91 0-7.37-.01-.86.3-1.18 1.17-1.18 8.2.02 16.41.02 24.61 0 .87 0 1.17.34 1.16 1.19-.03 2.5-.04 5 0 7.5.01.91-.38 1.14-1.21 1.13-1.96-.04-3.92.05-5.87-.04-1.03-.05-1.2.31-1.2 1.25.03 18.45.02 36.9.02 55.34 0 2.04 0 2.04-2.07 2.04h-6.75c-1.53 0-1.64-.11-1.64-1.62v-27.86zM399.56 614.23c0-9.25-.02-18.49.03-27.74.01-1.06-.27-1.33-1.3-1.28-1.91.09-3.83-.01-5.75.04-.89.02-1.17-.34-1.16-1.18.03-2.5.03-5 0-7.5-.01-.87.34-1.15 1.19-1.15 8.16.02 16.33.02 24.49 0 .82 0 1.23.22 1.22 1.12-.04 2.54-.04 5.08 0 7.62.01.85-.34 1.08-1.12 1.07-2-.03-4 .05-6-.04-1.02-.05-1.21.3-1.21 1.24.03 18.53.02 37.07.02 55.6 0 1.78 0 1.78-1.78 1.79h-7c-1.52 0-1.64-.12-1.64-1.62.01-9.31.01-18.64.01-27.97zM550.71 614.35c0-9.29-.02-18.57.03-27.86.01-1.07-.3-1.32-1.32-1.28-1.91.08-3.83-.01-5.75.04-.93.02-1.24-.33-1.23-1.25.04-2.41.05-4.83 0-7.25-.02-.94.25-1.33 1.27-1.33 8.12.03 16.24.03 24.37 0 1 0 1.32.38 1.3 1.33-.04 2.41-.04 4.83 0 7.25.01.91-.3 1.27-1.23 1.25-1.87-.05-3.75.06-5.62-.04-1.17-.06-1.52.22-1.51 1.46.05 18.28.04 36.57.03 54.85 0 2.48.42 2.31-2.35 2.32-2.17 0-4.33-.05-6.5.02-1.15.04-1.51-.38-1.5-1.52.03-9.33.01-18.66.01-27.99zM381.14 609.75c0 10.82-.02 21.65.02 32.47 0 1.23-.28 1.7-1.59 1.65-2.49-.1-4.99-.05-7.49-.02-.95.01-1.32-.32-1.32-1.31.02-21.98.02-43.96 0-65.94 0-.87.3-1.18 1.16-1.17 2.58.03 5.16.07 7.74-.01 1.16-.04 1.5.33 1.5 1.48-.04 8.7-.02 17.4-.02 26.1v6.75zM482.27 536.26c-.05.06-.09.12-.14.18-.13-.11-.08-.21.02-.31.04.04.08.09.12.13zM697.73 643.79c-6.33 0-12.67.01-19 .01-.54-.43-.46-1.03-.46-1.61 0-21.74.01-43.47-.02-65.21 0-1.2.36-1.57 1.58-1.56 5.58.06 11.16.06 16.74 0 1.25-.01 1.59.43 1.56 1.6-.06 2.33-.04 4.66-.01 6.99.01.91-.32 1.26-1.25 1.24-2.41-.05-4.83.01-7.25-.03-.69-.01-.92.16-.92.89.03 5.7.03 11.41 0 17.11 0 .73.25.9.93.89 2.33-.04 4.66.02 7-.03 1.06-.02 1.51.34 1.49 1.44a169 169 0 0 0 0 7.12c.03 1.11-.41 1.43-1.48 1.4-2.29-.07-4.58.01-6.87-.04-.77-.01-1.08.14-1.07 1.01.04 6 .04 11.99 0 17.99 0 .81.27.96 1 .95 2.33-.04 4.66.02 7-.03 1.01-.02 1.44.3 1.42 1.35-.05 2.41-.02 4.83-.01 7.24.01.47.01.93-.38 1.28zM636.99 643.79c-6.58.01-13.17.01-19.75.02-.51-.32-.46-.83-.46-1.34 0-21.9.01-43.8-.02-65.69 0-1.05.36-1.37 1.38-1.35 2.54.06 5.08.08 7.62-.01 1.21-.04 1.48.44 1.46 1.54-.05 3.37-.02 6.74-.02 10.12 0 15.15.01 30.31-.03 45.46 0 1.15.3 1.46 1.44 1.42 2.49-.09 5 0 7.49-.04.92-.02 1.28.34 1.28 1.24-.02 2.5-.01 5-.01 7.49 0 .42-.01.84-.38 1.14zM667.74 643.8c-6.58 0-13.17.01-19.75.01-.47-.34-.46-.84-.46-1.35 0-21.9.01-43.79-.01-65.69 0-1.07.4-1.36 1.4-1.34 2.5.05 5 .02 7.49.02 1.54 0 1.58.04 1.58 1.63 0 18.44.01 36.88-.03 55.33 0 1.25.27 1.62 1.55 1.56 2.45-.12 4.91-.02 7.37-.04.72-.01 1.24.14 1.24 1v7.99c-.01.34-.08.66-.38.88z" class="st0"/><path d="M522.18 520.08c-9.15-.01-18.23.07-27.36 2.49.67-1.66 1.25-3.11 1.83-4.54 3.18-7.76 6.58-15.43 10.16-23.02.35-.74.31-1.21-.2-1.86-5.92-7.52-11.91-14.98-18.25-22.17-.68-.77-.79-1.05.4-1.33 6.61-1.55 13.31-2.03 20.07-2 .72 0 .88.28.97.93 1.56 11.41 3.15 22.82 4.73 34.23.51 3.67 1.01 7.33 1.51 11 .09.67.34 1.18.9 1.66 1.8 1.47 3.51 3.06 5.24 4.61z" class="st1"/><path d="M553.84 484.51c-1.35 0-2.47.07-3.59-.02-1.05-.08-1.41.17-1.39 1.33.08 4.2.03 8.39-.18 12.69-3.22-6.12-6.45-12.23-9.75-18.5 1.34 0 2.5-.07 3.65.02 1.01.08 1.34-.18 1.32-1.27-.07-3.99-.03-7.99-.03-11.99v-.69c.08-.02.15-.05.23-.07 3.21 6.11 6.42 12.21 9.74 18.5z" class="st0"/></svg>