<svg xmlns="http://www.w3.org/2000/svg" id="Capa_1" data-name="Capa 1" viewBox="0 0 397.72 348.28"><defs><style>.cls-1{stroke-width:0}</style></defs><path d="M0 263.74V73.24h62.35l16.95 81.03c.08.41.76 5.51 2.04 15.28s2.62 19.57 4.02 29.38c1.07-7.34 2.41-16.43 4.02-27.28 1.61-10.84 2.54-16.84 2.78-18l16.82-80.41h61.73v190.5h-42.06l3.83-147.21-30.18 130.7H68.41l-30.18-130.7 3.83 147.21H0ZM184.04 0h213.68v348.28H184.04z" class="cls-1"/><path d="M373.56 264.42h-58.75l-36.97-70.35h-17.27v70.35h-47.93V72.57h77.18c10.65 0 19.93.67 27.83 2 7.9 1.33 15.2 4.1 21.9 8.31 6.87 4.38 12.32 9.94 16.36 16.69 4.04 6.74 6.06 15.31 6.06 25.7 0 14.69-3.31 26.61-9.92 35.75-6.62 9.15-15.46 16.43-26.54 21.84l48.05 81.56Zm-61.06-133.1c0-4.81-.92-8.95-2.77-12.43-1.85-3.48-4.92-6.16-9.21-8.05-3.01-1.29-6.36-2.1-10.05-2.45-3.69-.34-8.29-.52-13.79-.52h-16.11v51.67h13.79c6.7 0 12.39-.41 17.07-1.22 4.68-.82 8.65-2.55 11.92-5.22 3.09-2.4 5.39-5.28 6.89-8.63 1.5-3.35 2.25-7.73 2.25-13.14Z" style="fill:#fff;stroke-width:0"/></svg>