<svg xmlns="http://www.w3.org/2000/svg" id="Capa_1" data-name="Capa 1" viewBox="74.58 20.32 251.8 320.1"><defs><linearGradient id="Degradado_sin_nombre_2" x1="283.92" x2="284.49" y1="138.82" y2="239.73" data-name="Degradado sin nombre 2" gradientUnits="userSpaceOnUse"><stop offset="0" stop-color="#fff"/><stop offset="1" stop-color="#1d1d1b"/></linearGradient><clipPath id="clippath"><path d="M0 0h349v370H0z" style="stroke-width:0;fill:none"/></clipPath><style>.cls-6{stroke-width:0;fill:#f97b52}</style></defs><path d="m139.28 48.12 44.78-24.55s62.36-19.84 97.51 38.55 0 104.88 0 104.88-31.09 27.41-59.68 42.48 27.93-44.18 27.93-44.18l11.92-90.37-82.22-25.29-35.72 6.8-4.53-8.33Z" class="cls-6" style="clip-path:url(#clippath)"/><path d="m280.69 306.81-23.16 14.69L109.48 89.11l31.18-16.44 140.03 234.14z" class="cls-6"/><path d="M216.91 99.75c12.93.22 29.33 1.12 35.88 10.33 11.11 19.79 14.45 31.46-5.02 45.25l-50.36 34.26-63.85-101.82 41.37-28.28c18.29-10.08 33.04-8.75 45.92 9.61 5.35 9.26-1.14 24.67-3.94 30.66Zm-36.72 15.64 17.55-11.01c8.35-5.43 7.59-16.06 2.6-24.54-3.36-4.83-11.55-9.05-20.02-4.12L159.24 85.9l20.95 29.48Zm29.91 47.68 19.45-13.93c9.75-6.3 10.29-14.12 4.44-23.96-4.32-6.37-14.55-12.54-24.41-6.73l-20.31 11.41 20.83 33.21Z" style="fill:#faaf4c;stroke-width:0"/><path d="M206.2 106.11c12.93.22 29.33 1.12 35.88 10.33 11.11 19.79 14.45 31.46-5.02 45.25l-50.36 34.26-63.85-101.82 41.37-28.28c18.29-10.08 33.04-8.75 45.92 9.61 5.35 9.26-1.14 24.67-3.94 30.66Zm-36.71 15.64 17.55-11.01c8.35-5.43 7.59-16.06 2.6-24.54-3.36-4.83-11.55-9.05-20.02-4.12l-21.08 10.18 20.95 29.48Zm29.9 47.68 19.45-13.93c9.75-6.3 10.29-14.12 4.44-23.96-4.32-6.37-14.55-12.54-24.41-6.73l-20.31 11.41 20.83 33.21Z" style="fill:#b69d43;stroke-width:0"/><path d="M161.53 35.39 74.6 88.3l154.96 252.09 27.97-18.9-59.72-99.02L258.28 187c49.51-21.22 44.98-190.54-96.76-151.61Zm71.06 129.64-50.82 32.88-62.94-99.78 49.51-33.26c78.24-31.37 107.72 70.3 64.25 100.16Z" style="fill:#bc6b3b;stroke-width:0"/><path d="M283.52 180.39c-52.72 0-39.68 57.83-39.68 57.83s34.87 64.06 39.68 64.06 38.83-58.25 40.82-64.06 11.91-57.83-40.82-57.83Zm.15 60.66c-9.55 0-17.29-7.74-17.29-17.29s7.74-17.29 17.29-17.29 17.29 7.74 17.29 17.29-7.74 17.29-17.29 17.29Z" style="fill:url(#Degradado_sin_nombre_2);stroke-width:0"/></svg>