<svg id="Capa_1" data-name="Capa 1" xmlns="http://www.w3.org/2000/svg" viewBox="0 -0.03 511.28 132.73">
  <defs>
    <style>
      .cls-1 {
        fill: #0ee4fe;
      }

      .cls-1, .cls-2 {
        stroke-width: 0px;
      }

      .cls-2 {
        fill: #070707;
      }
    </style>
  </defs>
  <path class="cls-2" d="M195.09,68.35c0-17.88.18-35.76-.1-53.64-.1-6.27,1.83-8.79,8.45-8.65,16.84.37,33.69.06,50.53.15,12.33.07,22.19,6.71,26.08,17.33,4.06,11.05,1.4,21.8-8.58,29.86-4.3,3.47-4.27,6.07-2.56,10.82,6.96,19.34,15.03,38.29,20.25,58.26,1.65,6.33.98,8.19-6.1,8.88-9.43.91-13.09-3.04-15.83-11.29-5.3-15.93-11.75-31.47-17.47-47.26-1.47-4.05-2.66-5.16-7-2.79q-4.75,2.59-11.53,6.3c-17.85,10.35-16.24,7.24-15.91,26.76.12,7.18.09,14.49.21,21.74.05,3.12-.79,4.34-4.28,4.69-15.95,1.58-15.93,1.73-15.94-14.51,0-15.55,0-31.1,0-46.64-.07,0-.15,0-.22,0ZM236.75,26.75c-5.71,0-11.42.12-17.12-.05-2.97-.09-4.21.93-4.17,3.98.11,8.82.01,17.64.05,26.46,0,1.76-.15,4.29,2.81,2.78,13.6-6.91,27.7-12.97,39.89-22.38,2.27-1.75,2.97-4.16,1.78-6.94-1.16-2.7-3.26-3.86-6.13-3.85-5.71.02-11.41,0-17.12,0Z"/>
  <path class="cls-2" d="M380.55,61.27c6.49,0,12.97.02,19.46,0,3.19-.01,6.01.96,6.15,4.5.67,16.92.95,33.68-10.4,48.19-12.33,15.76-32.49,22.31-53.79,16.74-20.19-5.28-34.92-21.4-37.17-41.18-1.5-13.18-1.36-26.46-.35-39.65,1.76-22.8,20.13-42.04,42.38-45.22,23.62-3.38,47.12,10.41,55.45,32.29,1.82,4.77-2.09,8.74-7.09,9.16-8.04.66-11.66-2.21-16.84-10.35-7.14-11.21-20.62-14.45-33.12-10.28-12.26,4.08-21.09,15.88-21.26,28.7-.13,9.6-.22,19.21.02,28.8.4,16.31,14.16,29.74,30.64,30.2,16.9.48,30.67-11.69,32.39-28.27.38-3.64-.83-4.55-4.12-4.49-7,.12-14.02-.15-21.02.08-7.64.25-6.31-5.13-6.35-9.65-.03-4.55-1.27-9.88,6.34-9.62,6.22.22,12.45.04,18.68.05Z"/>
  <path class="cls-2" d="M424.44,68.69c0-17.89.24-35.78-.13-53.66-.13-6.46,2.04-8.66,8.43-8.6,23.07.25,46.15.23,69.22,0,5.54-.06,7.51.95,7.72,7.39.06,1.8-.08,3.82,0,5.44.27,5.61-1.35,7.76-7.36,7.62-17.1-.38-34.22.06-51.32-.26-5.15-.1-6.89,1.37-6.41,6.5-.21,8.02.02,15.51,1.3,20.25,4.48,3.09,13.23,1.18,20.14,1.35,9.33.24,18.67.27,27.99-.01,5.68-.18,8.27,1.9,7.7,7.69-.2,2.05.06,4.15-.01,6.22-.19,5.36-2.13,6.72-7.01,6.65-14.51-.2-29.04.13-43.55-.19-4.99-.11-6.87,1.13-6.59,6.37.42,8.01.32,16.07.02,24.1-.15,4.13,1.24,5.26,5.28,5.2,16.33-.21,32.67-.35,49-.08,10.04.17,13.04,1.09,12.31,17.53-.54,2.11-3.3,2.84-5.64,2.84-24.89,0-49.77-.11-74.66.09-5.53.04-6.31-2.66-6.27-7.24.15-18.4.06-36.81.06-55.22-.07,0-.15,0-.22,0Z"/>
  <path class="cls-2" d="M45.09,132.57c-13.51.66-25.84-1.82-35.44-12.31-5.42-5.92-8.69-12.75-9.3-20.86-.96-12.71-.74-12.73,12.18-12.83,5.89-.04,7.57,2.39,7.87,7.79.65,11.72,7.14,17.91,18.76,18.22,5.17.14,10.42.13,15.51-.64,7.58-1.15,12.7-5.62,14.39-13.34,1.71-7.83-.69-12.65-8.29-15.15-6.62-2.18-13.54-3.45-20.31-5.2-5.51-1.43-11.08-2.69-16.46-4.51C3.89,66.97-1.11,59.05.36,36.93,1.34,22.07,13.66,8.75,29.6,6c12.63-2.18,25.32-2.54,37.32,3.11,12.98,6.12,19.86,18.59,18.81,32.85-.28,3.81-1.68,5.53-5.52,5.96-11.04,1.22-12.5.31-14.84-10.36-1.92-8.75-6.18-12.31-15.09-12.46-4.67-.08-9.35-.19-14.01.06-8.13.43-15.1,7.22-16.08,15.33-.85,7.09,2.92,11.35,12.46,14.13,11.43,3.33,22.98,6.3,34.24,10.14,18.29,6.22,23.96,15.35,22.09,33.95-1.96,19.42-11.43,30.21-29.2,32.84-4.85.72-9.81.7-14.71,1.02Z"/>
  <path class="cls-1" d="M150.8,35.88c-.56,10.17-4.35,19.61-6.92,29.3-1.57,5.95-.49,8.22,5.84,7.54,3.32-.36,6.71-.06,11.71-.06-11.97,16.56-23.27,32.21-34.57,47.85-.61-.29-1.22-.59-1.84-.88,2.16-8.21,4.32-16.42,6.46-24.63q2.58-9.91-7.36-9.95c-2.56,0-5.11,0-9.48,0,12.79-16.94,23.33-33.84,36.27-49.03l-.13-.13Z"/>
  <path class="cls-2" d="M140.97,0c7.43-.07,8.92.94,8.83,8.16-.13,10.91-.22,10.93-9.76,10.93q-9.75,0-9.75-10.68Q130.3,0,140.97,0Z"/>
  <path class="cls-1" d="M150.93,36.01c.12-.45.23-.9.35-1.35.2.19.41.37.61.56-.36.22-.72.44-1.09.66,0,0,.13.13.13.13Z"/>
</svg>