<svg xmlns="http://www.w3.org/2000/svg" id="Capa_1" data-name="Capa 1" viewBox="0 0 358.7 118.97"><defs><style>.cls-1{fill:#18a9a1}.cls-1,.cls-3,.cls-4,.cls-5,.cls-6{stroke-width:0}.cls-3{fill:#1565a2}.cls-4{fill:#fcfbfc}.cls-5{fill:#e9f3f4}.cls-6{fill:#282627}</style></defs><path d="M160.65 55.02c-.15-.76.23-1.39.5-2.04.84-1.4 1.56-2.87 2.06-4.43.11-.13.22-.25.33-.38.49-.36.85-.83 1.21-1.31 1.19-1.58 2.65-2.87 4.27-4.02 1.19-.85 2.38-1.69 3.67-2.39.07-.05.14-.11.21-.16l3.57-1.29c.16-.03.32-.06.47-.09.89.2 1.68-.09 2.44-.52.14-.05.29-.1.43-.15h1.21c.24.11.47.12.71 0 .45-.04.92.12 1.33-.18.25 0 .51 0 .76-.01.1.05.21.11.31.16l.44.12c2.33.31 4.51 1.06 6.56 2.19.02.04.05.07.1.08.99.57 1.98 1.15 2.97 1.73.01.15.08.23.24.22.07.27.35.24.52.37.02.06.06.09.12.09 1.52 1.03 2.38 2.63 3.48 4.02.33.42.59.94.47 1.53-.05.06-.06.14-.04.21-.18.39-.37.79-.55 1.18-.14.03-.27.06-.41.1l-.71-.06c-.39-.29-.77-.53-1.1-.97a9.84 9.84 0 0 0-2.29-2.21c-1.98-1.38-3.83-2.92-6.2-3.64-1.46-.44-2.89-.86-4.55-.35.52.43.95.61 1.42.71.93.19 1.88.34 2.79.6 1.94.56 3.5 1.71 5.04 2.99 1.89 1.56 3.19 3.35 3.59 5.78.1.63-.04 1.17-.57 1.42-.55.26-1.14.41-1.69-.25-.59-.7-1.24-1.37-1.64-2.18-.7-1.4-1.82-2.26-3.18-2.88-.43-.51-1.1-.37-1.63-.6-3.06-1.37-6-.73-8.93.46-1.35.76-2.55 1.68-3.36 3.04-2.29 2.39-2.97 7-.17 9.82.65.66 2.44 1.25 3.15.96 1.17-.47 1.66-1.21 1.35-2.54-.24-1.04.47-1.97 1.32-2.05.77-.07 1.75.94 1.81 1.89.16 2.58-1.02 4.44-3.15 5.78-.4.01-.7.24-1 .47-1.37.41-2.6-.26-3.89-.49-.92-.63-1.83-1.26-2.75-1.89.02-.4-.23-.68-.45-.95-1.56-1.86-1.82-4.21-2.09-6.43-.12-1.05-.07-2.03-.69-2.95-.46-.67-.86-1.42-1.85-1.19-.92.22-1.47.97-1.8 1.76-.99 2.37-1.13 4.86-.86 7.39 0 .31.02.63.02.94-.14.89-.41 1.73-1.43 1.92-1.07.2-1.34-.74-1.79-1.39-.02-.03-.06-.05-.09-.07-.09-.38-.26-.76-.25-1.14.05-2.25-.27-4.51.24-6.74Z" class="cls-3"/><path d="M172.39 80.64c-.22 0-.45-.02-.67-.03-1.52-.65-3.04-1.29-4.56-1.94-.36-1.06-1.37-1.08-2.2-1.4-.36-.48-.92-.67-1.4-.97-1.01-1.32-2.55-2.08-3.54-3.43-.81-1.11-.86-2.17-.03-3.21.07 0 .13-.01.17-.06.89-.15 1.43.29 1.81 1.03.14.28.26.64.49.8 2.29 1.49 4.19 3.58 6.87 4.5 1.42.49 2.79 1.12 4.35.99.37-.03.62-.16.73-.49.09-.26-.07-.54-.32-.53-.64.02-1.12-.37-1.68-.53-3-.84-5.78-2.06-7.81-4.56-1.05-1.29-2.25-2.47-2.7-4.16-.2-.75.05-1.35.52-1.85.49-.53 1.03-.16 1.53.05.65.94 1.3 1.89 1.94 2.84.44.83 1.2 1.33 1.93 1.86.07.05.14.07.22.07.88.84 1.95 1.22 3.13 1.36 1.25.07 2.49.11 3.75.1 2.21-.02 3.99-1.06 5.83-2.02.49-.16.67-.66 1.03-.97 2.58-2.22 3.34-7.6 1.48-10.53-.79-1.25-2.08-1.78-3.45-1.35-1.43.44-1.61.85-1.44 2.84.07.77 0 1.63-.9 1.86-.88.23-1.5-.27-1.86-1.11-1.12-2.56-.36-4.74 2.28-6.47 1.92-.84 3.83-.63 5.75.01 1.49 1.05 2.79 2.26 3.39 4.05 0 .45.12.86.42 1.21.03.15.06.31.08.46.24 1.28.48 2.56.71 3.85.24 1.35.72 2.58 1.7 3.58.78.79 1.71.81 2.25-.12 1.62-2.77 2.41-5.74 1.77-8.96-.18-.91-.06-1.71.68-2.38.78-.72 1.29.09 1.92.26.45 1.43 1.05 2.9.74 4.39-.46 2.23-.5 4.5-1.29 6.71-.8 2.23-1.75 4.25-3.27 6.07-1.92 2.3-4.11 4.25-6.68 5.79h-.01c-4.35 2.01-8.8 3.43-13.68 2.38Z" class="cls-1"/><path d="M245.07 113.02c.05.94.11 2.41.23 3.88.05.61-.12.82-.75.91-1.38.2-2.75.49-4.11.82-.92.23-1.06-.06-1-.94.48-6.77.55-13.55.12-20.32-.13-2.03-.46-2.32-2.43-2.83-.28-.07-.7 0-.68-.48.01-.4.28-.51.64-.54 5.38-.4 10.76-.92 16.13 0 .66.11 1.33.3 1.96.54 3.46 1.31 4.48 4.75 2.32 7.77-.9 1.26-2.1 2.19-3.47 2.88-.69.35-.72.67-.32 1.28 2.13 3.23 4.33 6.42 6.78 9.42.78.96 1.58 1.92 2.74 2.46.21.1.48.19.36.51-.09.23-.28.41-.55.38-3.1-.32-6.37.16-8.65-2.96-2.05-2.79-4.23-5.5-6.2-8.36-.44-.64-2.48-.94-2.97-.4-.15.17-.13.52-.13.79-.01 1.56 0 3.11 0 5.21Zm0-13.34c0 .72-.11 1.45.03 2.14.2 1.02-.73 2.38.49 2.99.96.48 2.2.2 3.29-.06a6.24 6.24 0 0 0 1.56-.58c1.95-1.05 2.38-2.84 2.32-4.86-.05-1.79-.97-2.97-2.55-3.7-1.37-.62-2.82-.77-4.3-.87-.71-.05-.87.21-.85.87.05 1.35.01 2.7.02 4.05ZM155.27 61.71c-1.77.52-3.64.23-5.27-.13-2.65-.59-5.24-.08-7.83-.19-8.81-.36-17.63.2-26.44.37-2.64.05-5.29.18-7.91 0-3.04-.22-6.12-.35-9.11-1.07-.86-.21-1.63-.14-2.38.38-.89.62-1.8.93-3 .76-5.87-.83-11.78-1.25-17.68-.59-3.29.37-6.57-.25-9.84.26-.94.15-1.91.19-2.86.27-1.01.08-2-.06-2.85-.65-.34-.23-.58-.25-.96-.19-3.76.67-7.54.77-11.33.36-.6-.06-1.17-.1-1.76.14-.4.16-.86.21-1.29.22-4.34.1-8.69.39-13.03.08-1.59-.11-3.13.14-4.7.22-2.32.12-4.69.33-6.96-.37-.58-.18-1.01.09-1.49.18-3.34.6-6.79.56-10.04 1.55-1.24.38-2.54 0-3.79.72-.71.41-2.03-.39-2.84.09-1.03.6-1.06-.06-1.29-.63-.25-.61.49-1.67 1.16-1.71.23-.02.14.12.19.25.36.86.97 1.01 1.81.61.86-.41 1.8-.14 2.7-.23.69-.07 1.23-.44 1.7-.94.42-.44.83-.84 1.51-.3.3.24.78.11 1.16-.06 2.99-1.33 6.14-1.16 9.29-.97 2.39.15 4.77.29 7.17-.04 1.28-.18 2.62.1 3.94.14 5.52.17 11.02-.54 16.53-.42 6.85.15 13.64-.68 20.45-1.02 5.73-.29 11.42-.05 17.07.97 2.27.41 4.55.17 6.81-.04 3.35-.3 6.67-.42 10.04-.02 4.53.54 9.1.11 13.65-.15 8.47-.48 16.93-.16 25.39.32 1.48.09 2.95.13 4.43.14 3.46.01 6.93.2 10.39.02.62-.03 1.01-.02 1.06.83.05.88-.46.75-.96.79-.28.02-.56.03-.84.04ZM197.23 26.35c-1.24 0-2.62.34-3.67-.1-.95-.39-.79-1.95-1.34-2.92-.75-1.31-1.39-2.69-2.01-4.07-.33-.73-.77-1-1.58-.92-2.7.28-5.41.51-8.11.77-1.01.1-1.69.65-2.1 1.56-.71 1.56-1.49 3.09-2.11 4.68-.41 1.07-.96 1.57-2.15 1.29-.58-.14-1.19-.13-1.79-.15-.95-.03-1.02-.41-.49-1.1 2.19-2.86 4.04-5.93 5.77-9.07 2.11-3.84 4.1-7.74 5.77-11.8.14-.33.33-.67.34-1.01.08-2.01 1.62-2.62 3.08-3.34.68-.33.93-.16 1.18.55 2.54 7.11 5.9 13.84 9.36 20.53.57 1.1 1.21 2.15 2.02 3.1.42.49.9.9 1.52 1.13.28.11.71.09.64.55-.08.51-.52.4-.86.4-1.16.01-2.32 0-3.48 0v-.09ZM184.79 7.08c-1.34 2.86-2.54 5.5-3.82 8.09-.41.83-.03.96.63 1.01 2.15.17 4.3.12 6.44.07.51-.01.62-.18.42-.64-1.2-2.76-2.38-5.53-3.67-8.52ZM64.21 20.9c-.35 2.42-1.76 3.95-3.47 4.68-5.31 2.26-10.72 2.2-15.74-.85-4.08-2.48-5.59-6.5-5.55-11.13.04-5.76 3.3-10.32 8.87-12.17 4.67-1.55 9.43-1.5 14.15-.14 1.48.43 1.45.47.92 1.87-.29.78-.75 1.5-.84 2.35-.03.34-.27.45-.54.55-.33.12-.41-.12-.53-.33-1.93-3.46-5.17-3.73-8.54-3.27-3.86.52-6.24 2.99-6.98 6.86-.43 2.26-.43 4.54.16 6.76 1.85 7.04 9.49 10.07 15.83 6.31.68-.4 1.32-.87 2.25-1.48ZM349.19 58.03c-3.14.3-6.26 1.02-9.36 1.19-5.98.34-11.9 1.34-17.88 1.5-.66.02-.91.58-1.56.61-5.35.24-10.7.42-16.03.94-5.21.51-10.44.6-15.67.45-1.36-.04-2.74.16-4.06.06-3.11-.24-6.2.53-9.26.16-2.72-.33-5.45.01-8.12-.33-2.92-.37-5.78.27-8.66.07-1.11-.08-2.19-.14-3.25-.63-.91-.43-1.98-.12-2.96-.08-2.09.09-4.14-.17-6.2-.46-1.84-.27-3.61.17-5.42.39-2.09.25-4.22.17-6.33.12-1.55-.04-3.1-.28-4.65-.43-1.99-.19-3.99-.04-5.97-.12-4.22-.18-8.44.05-12.65-.16-3.23-.16-6.47-.18-9.7-.28-.35-.01-.8.19-.81-.51-.01-.72.4-.64.84-.62 6.78.34 13.58-.44 20.35.12 1.77.15 3.5-.12 5.24-.21 8.04-.44 16.06.04 24.07.58 10.73.72 21.48.77 32.22.92 2.55.03 5.11.32 7.66.32 1.61 0 3.22-.33 4.84-.47 3.27-.28 6.53-.33 9.8-.17 4.25.21 8.41-.75 12.64-.88 5.75-.17 11.47-.88 17.22-1.07 1.62-.05 3.11-.83 4.8-.61 2.55.33 5.01-.7 7.55-.72.46 0 .96-.19 1.29.3l-.05.04h.06ZM150.03 118.78c-1.42-.01-3.19-.23-4.94-.69-.67-.18-.96-.44-.78-1.15.27-1.04.49-2.09.71-3.15.06-.31.16-.51.52-.53.37-.02.48.16.52.49.03.23.09.49.23.67 2 2.52 7.54 3.22 9.67.58 1.29-1.61.92-4.16-.79-5.42-1.01-.74-2.16-1.21-3.32-1.63-1.2-.43-2.4-.87-3.51-1.52-3.8-2.2-4.58-7.07-1.66-10.36 1.8-2.03 4.18-2.89 6.79-3.15 2.28-.22 4.54 0 6.77.57.71.18.92.42.65 1.14-.32.85-.54 1.75-.78 2.63-.07.25-.15.45-.45.47-.27.02-.39-.12-.55-.34-1.64-2.37-4.38-3.25-7.1-2.28-1.12.4-1.96 1.12-2.17 2.34-.24 1.36-.03 2.63 1.13 3.58 1.11.9 2.44 1.33 3.75 1.81 1.08.4 2.18.78 3.24 1.22 5.91 2.43 4.9 8.78 1.84 11.57-2.67 2.44-5.89 3.23-9.78 3.15Z" class="cls-6"/><path d="M171.89 101.01c4.78-.04 9.38.08 13.95-.44.56-.06.95-.13.63.71-.42 1.08-.35 2.27-.36 3.42-.06 4.03-.15 8.06.15 12.08.05.74-.09 1.06-.92 1.13-1.15.09-2.29.34-3.41.61-.91.22-1.09-.04-1.04-.94.27-4.74.39-9.48.02-14.22-.08-1.01-.36-1.28-1.36-.9-1.59.61-3.3.54-4.97.65-.71.04-1.03.2-1.07 1.02-.19 4.31-.17 8.61.18 12.91.06.75-.03 1.09-.87 1.12-1.27.05-2.55.17-3.81.39-.92.16-1.01-.2-.92-.95.49-4.33.45-8.67.31-13.02-.03-.93-.28-1.26-1.24-1.18-1.66.14-3.36-.13-4.9.79-.4.24-.59 0-.46-.45.27-.92.55-1.83.81-2.75.1-.34.29-.39.63-.33 2.93.5 5.9.29 8.66.35ZM265.04 8.02c2.34-.02 4.62.23 6.69 1.48.76.46 1.42 1.03 1.95 1.74 2.77 3.67 1.74 10.51-2.04 13.15-3.85 2.68-8.11 3.25-12.56 1.99-3.61-1.02-5.75-3.91-6.04-7.92-.27-3.78 1.1-6.79 4.5-8.7 2.33-1.31 4.88-1.7 7.5-1.74Zm4.6 9.33c-.05-1.65-.16-3.44-1.05-5.06-1-1.82-2.58-2.62-4.64-2.57-2.1.05-3.79.87-4.57 2.86-1.35 3.44-1.18 6.89.67 10.11 1.06 1.86 2.83 2.63 4.98 2.38 2.1-.25 3.35-1.52 4.01-3.45.46-1.34.54-2.73.61-4.27ZM147.6 27.02c-7.62-.02-12.2-6.86-9.02-13.5 1.02-2.13 2.74-3.52 4.89-4.34 3.53-1.35 7.17-1.59 10.81-.59 3.25.89 5.12 3.08 5.54 6.46.79 6.2-3.06 10.97-9.48 11.73-.91.11-1.83.17-2.74.25Zm6.75-9.55c-.01-1.68-.18-3.34-.92-4.89-.89-1.87-2.38-2.82-4.46-2.86-2.13-.04-3.97.66-4.81 2.67-1.51 3.58-1.31 7.18.74 10.53 1.1 1.79 2.9 2.44 4.98 2.13 1.98-.29 3.19-1.51 3.82-3.35.47-1.37.62-2.79.66-4.23ZM204.16 19.17v-7.29c0-1.14-.5-1.91-1.71-2.07-.33-.04-.63-.08-.6-.55.02-.45.28-.48.63-.5 4.42-.26 8.84-.71 13.26 0l.24.03c1.72.4 3.4.92 3.79 2.95.39 2.02-.8 3.31-2.3 4.38-1.61 1.15-1.63 1.13-.53 2.76a64.85 64.85 0 0 0 3.91 5.28c.56.68 1.13 1.35 1.9 1.8.2.12.48.19.36.5-.1.24-.31.33-.58.32-2.9-.17-5.82-.14-7.75-3.01-1.1-1.65-2.5-3.11-3.51-4.83-.42-.71-.92-.57-1.52-.5-.75.09-.57.65-.57 1.09.03 1.87.05 3.75.15 5.61.03.67-.14.89-.82.94-1.15.1-2.31.23-3.42.53-1.1.3-1.18-.1-1.08-1.02.24-2.14.25-4.3.15-6.45Zm5.01-5.87v2.62c0 .31-.04.68.38.76 1.73.33 4.03-.17 4.79-2 .97-2.35-.33-4.17-3.32-4.61q-1.85-.28-1.85 1.57v1.67ZM306.61 118.81c-1.24.02-2.48-.07-3.67-.42-3.69-1.08-5.82-3.79-6.22-7.89-.36-3.7 1.32-6.96 4.61-8.59 3.77-1.87 7.75-2.12 11.76-.99 2.94.83 4.74 2.85 5.16 5.94.89 6.43-2.76 11.03-9.37 11.8-.75.09-1.51.11-2.27.16Zm6.32-9.51c.03-1.29-.13-2.82-.75-4.28-.79-1.84-2.16-2.93-4.2-3.05-2-.12-3.71.46-4.82 2.26-1.71 2.79-1.28 8.49.81 11.01 2.38 2.87 6.79 2.22 8.21-1.21.59-1.42.73-2.92.75-4.73ZM325.33 100.71c2.9.01 5.5-.17 8.06.47 1.52.38 2.94.92 3.31 2.69.39 1.81-.53 3.06-1.84 4.11a.36.36 0 0 1-.1.07c-.59.39-1.62.73-1.69 1.19-.11.76.72 1.43 1.19 2.11 1.28 1.88 2.61 3.72 4.13 5.42.34.38.77.69 1.17 1.01.2.16.58.22.42.6-.13.31-.44.29-.73.27-1.6-.09-3.18-.24-4.74-.61-.63-.15-1.01-.63-1.42-1.05-1.76-1.81-3.29-3.81-4.62-5.94-.45-.72-.93-.64-1.59-.53-.8.14-.48.72-.49 1.11-.03 1.79-.06 3.59.16 5.38.06.53.03.95-.68.95-1.25 0-2.45.31-3.66.58-.8.18-.97-.04-.9-.81.4-4.34.27-8.68.22-13.03-.01-1.32-.2-2.51-1.88-2.67-.33-.03-.49-.21-.45-.56.05-.44.36-.46.69-.47 1.91-.1 3.83-.2 5.44-.29Zm1.05 4.68v2.62c0 .39.04.66.5.8 2.46.76 5.04-1.25 4.79-3.76-.14-1.48-1.19-2.34-3.31-2.7q-1.99-.34-1.99 1.61v1.43ZM280.9 14.2c0 2.41-.02 4.78 0 7.15.02 1.39.08 2.79.19 4.18.06.65-.15.89-.77.84-.12 0-.24.02-.36.04-2.29.34-2.27.35-1.99-2.02.47-3.96.78-7.94.64-11.93-.07-1.87-.27-2.1-2.08-2.69-.32-.1-.65-.16-.57-.6.07-.42.32-.59.75-.59 1.76-.02 3.51-.09 5.24-.43.54-.11.77.3 1.06.62 3.08 3.35 6.14 6.71 9.37 9.92.39.38.79.75 1.36 1.29.09-3.39.2-6.55-.23-9.7-.14-1.03.03-1.58 1.16-1.64.75-.04 1.71-.54 2.19-.24.67.43-.25 1.2-.33 1.88-.55 5.13-.71 10.26-.49 15.41.06 1.5.02 1.49-1.42 1.23-.9-.17-1.61-.56-2.27-1.19-3.57-3.43-7.01-6.98-10.43-10.56-.32-.33-.55-.76-1.05-.95ZM132.37 19.99c.08-3.32.16-6.37-.2-9.42-.2-1.7-.22-1.72 1.41-1.99.66-.11 1.47-.58 1.96-.18.57.46-.29 1.07-.36 1.69-.56 5.2-.82 10.41-.53 15.64.08 1.39 0 1.42-1.35 1.2-1.1-.17-1.88-.77-2.64-1.5-3.41-3.31-6.73-6.7-10-10.14-.35-.37-.71-.74-1.06-1.12-.4.27-.22.62-.22.9-.01 3.39.06 6.78.28 10.16.05.73.03 1.25-.93 1.17-.8-.07-1.78.83-2.32.12-.34-.46.11-1.51.19-2.29.4-3.85.71-7.7.61-11.58-.05-1.7-.28-2.6-2.14-2.89-.38-.06-.58-.23-.51-.64.06-.38.29-.52.66-.53 1.8-.04 3.59-.1 5.36-.44.59-.11.82.41 1.13.74 3.08 3.35 6.15 6.7 9.37 9.91.34.34.69.65 1.26 1.19ZM24.38 93.39c-1.3 1.24-2.34 2.83-4.58 2.65-1.18-.09-2.39.17-3.59.13-1.03-.03-1.29.41-1.31 1.34-.11 5.26-.17 10.53.06 15.79.06 1.31.17 2.63.29 3.94.05.53-.03.84-.66.82-1.49-.05-2.94.27-4.39.57-1.02.21-1.22-.07-1.13-1.07.59-6.68.57-13.38.34-20.08-.03-1-.36-1.3-1.35-1.19-1.31.14-2.63.12-3.95.16-1.13.03-2.23.18-3.24.73-.23.13-.47.35-.75.09-.3-.28 0-.52.08-.75.34-.98.74-1.94 1.08-2.91.14-.39.28-.6.76-.49 2.56.59 5.16.47 7.75.47 4.23 0 8.47.13 12.7-.24.59-.05 1.17-.15 1.75-.22.04.1.08.19.12.29ZM58.57 110.81c.2-2.35.27-4.7.03-7.05-.1-.94-.47-1.59-1.46-1.77-.27-.05-.59-.06-.56-.46.03-.39.26-.53.64-.54 2.11-.07 4.23-.16 6.34-.24.45-.02.72-.02.54.65-.6 2.22-.26 4.51-.37 6.78-.02.47.18.54.58.37.99-.43 1.98-.85 2.59-1.82 1.18-1.87 2.74-3.52 3.45-5.68.1-.32.36-.26.58-.25 1.56.06 3.11.14 4.67.19.41.01.56.2.6.57.04.39-.2.43-.5.51-2.99.79-4.76 3.22-6.91 5.14-.36.32-.09.57.11.81 2.52 2.99 4.91 6.08 7.59 8.93.38.4.85.72 1.31 1.03.23.15.36.29.3.57-.07.33-.27.48-.6.43-2.86-.42-5.91-.12-8-2.91-1.4-1.87-3.07-3.56-4.52-5.41-.24-.31-.46-.71-.95-.59-.58.15-.33.67-.33 1 0 1.91 0 3.83.12 5.74.06.87-.24 1.06-1.02 1.14-1.15.11-2.29.34-3.41.59-.74.16-.86-.08-.84-.79.05-2.31.02-4.62.02-6.93ZM214.97 108.74c1.55-.52 2.72-1.12 3.46-2.36 1.05-1.77 2.56-3.26 3.16-5.29.09-.32.31-.32.55-.31 1.6.07 3.19.14 4.79.2.36.01.5.18.53.5.03.25.03.49-.3.53-2.27.33-3.66 2.01-5.22 3.4-2.24 1.99-2.22 2.04-.26 4.38 1.82 2.17 3.65 4.33 5.49 6.48.54.63 1.1 1.27 1.86 1.67.28.14.49.29.36.63-.09.22-.23.44-.52.39-2.68-.45-5.61 0-7.69-2.51-1.6-1.93-3.3-3.79-4.88-5.74-.26-.33-.47-.83-1.02-.64-.53.18-.3.69-.3 1.03.01 1.91.03 3.83.13 5.74.04.78-.2 1.02-.96 1.09-1.11.1-2.21.32-3.3.57-.77.17-1.1.08-1.02-.83.35-4.14.24-8.29.18-12.43 0-.52-.12-1.03-.15-1.54-.05-.92-.49-1.49-1.4-1.69-.31-.07-.67-.07-.59-.55.07-.42.36-.45.71-.47 2.08-.07 4.15-.17 6.22-.23.29 0 .83-.2.63.48-.7 2.42-.26 4.89-.48 7.51ZM106.04 111.99c.16-3.28.2-6.3-.24-9.29-.18-1.24.1-1.77 1.34-1.84.67-.04 1.53-.48 1.96-.2.66.43-.26 1.05-.32 1.65-.56 5.08-.76 10.18-.51 15.28.07 1.42.1 1.38-1.34 1.16-.92-.14-1.62-.53-2.28-1.17-3.56-3.44-7-6.99-10.42-10.57-.23-.25-.38-.62-.62-.66 0 3.51-.04 7.02.03 10.54.02.88.09 1.32-1.05 1.41-2.2.18-2.2.28-1.96-1.96.38-3.57.68-7.14.67-10.74 0-1.68.02-3.39-2.28-3.65-.31-.04-.39-.24-.36-.51.03-.3.14-.54.49-.57 1.87-.14 3.74-.3 5.61-.42.48-.03.64.43.9.7 3.06 3.31 6.09 6.65 9.31 9.81.28.28.57.54 1.08 1.01ZM123.85 100.43c1.97 0 3.9.23 5.79.78.7.2.92.51.56 1.2-.35.67-.65 1.36-.83 2.1-.19.76-.67.78-1.06.16-1.32-2.08-3.32-2.6-5.59-2.51-3.25.13-5.42 2.23-5.68 5.49-.13 1.69.12 3.34.76 4.92 1.24 3.07 4.28 4.73 7.54 4.16.72-.12 1.16-.36 1.06-1.21-.09-.79-.05-1.59-.05-2.39 0-.89.06-1.8-1.22-1.84-.22 0-.42-.16-.4-.37.02-.28.18-.57.48-.62 1.93-.3 3.88-.48 5.84-.49.42 0 .31.31.22.61-.58 1.9-.88 3.81-.15 5.75.14.37-.08.58-.43.71-4.29 1.64-8.66 2.64-13.2 1.17-3.54-1.14-5.34-3.8-5.72-7.39-.4-3.73 1.08-6.62 4.33-8.53 2.38-1.4 5.02-1.74 7.74-1.71ZM244.61 10.97c-2.39-.21-4.61-.15-6.84.07-.9.09-1.48.74-2.1 1.29-.27.24-.5.53-.92.26-.41-.26-.13-.56-.05-.84.28-1.04.28-2.4.96-3.01.7-.63 2.05-.08 3.12-.04 4 .12 7.99.09 11.99-.05.32-.01.74-.25.97.2.23.45-.08.74-.33 1.06-3.09 3.97-5.98 8.08-8.87 12.19-.32.45-.61.92-.99 1.49 1.42.41 2.77.34 4.09.44 2 .16 3.99.04 5.98-.18.22-.02.5-.19.64.09.16.3-.03.53-.25.72-1.01.85-2.04 1.59-3.47 1.69-3.24.23-6.47.11-9.71.03-1.32-.03-2.64.02-3.95.03-.37 0-.81.27-1.05-.26-.2-.44.16-.65.37-.92 3.48-4.47 6.77-9.09 10.05-13.7.09-.13.17-.26.36-.55ZM82.92 26.35c-1.97.38-3.54.02-4.2-2.67-.56-2.26-.91-2.17-3.32-1.98-1.39.11-2.79.25-4.18.33-.89.05-1.52.36-1.79 1.27-.14.45-.39.87-.58 1.31-.81 1.92-2.14 2.51-4.09 1.77-.76-.29-.23-.69 0-.99 3.15-3.97 5.45-8.43 7.61-12.97.33-.68.62-1.38.86-2.1.4-1.19 2.08-2.48 3.35-2.56.45-.03.64.2.77.58 1.77 5.02 4.31 9.67 6.76 14.37.59 1.12 1.16 2.3 2.47 2.8.27.1.39.27.31.54-.08.3-.35.28-.58.28h-3.4Zm-8.89-12.87c-.93 1.95-1.73 3.69-2.59 5.39-.29.59-.1.77.45.84 1.47.2 2.95.09 4.42.06.56-.01.55-.29.36-.7-.85-1.79-1.7-3.58-2.65-5.6ZM317.22 26.29c-1.12 0-2.42.35-3.29-.11-.69-.37-.84-1.74-1.23-2.66-.09-.22-.21-.43-.28-.66-.36-1.13-1.04-1.49-2.25-1.29-1.65.27-3.33.35-5 .46-.9.06-1.5.41-1.8 1.28-.2.56-.44 1.11-.71 1.64-.28.55-.26 1.4-.97 1.55-1.02.21-2.08.07-3.08-.18-.58-.14-.15-.59.04-.83 3.2-3.97 5.49-8.47 7.69-13.03.43-.9.83-1.8 1.06-2.78.18-.73 2.79-2.09 3.48-1.88.34.11.35.39.45.64 1.86 5.01 4.36 9.72 6.85 14.44.55 1.05 1.11 2.15 2.33 2.61.26.1.4.23.36.52-.04.33-.3.33-.53.33h-3.11v-.06ZM308 13.47c-.92 1.94-1.7 3.67-2.57 5.36-.34.66-.1.84.5.9 1.43.15 2.86.08 4.29.04.6-.02.65-.24.41-.73-.86-1.78-1.69-3.58-2.63-5.57ZM264.96 112.33c-.04-2.94.03-5.21-.12-7.48-.09-1.21-.49-1.97-1.8-2.06-.24-.02-.61.03-.68-.35-.06-.35.24-.45.47-.62 1.06-.77 2.15-1.15 3.54-1.04 3.7.3 7.41.4 11.11-.05.53-.06.72.05.7.6-.05.91-.06 1.83-.07 2.75 0 .32-.11.54-.42.65-.28.1-.5-.05-.61-.26-1.02-2.01-2.73-1.84-4.59-1.63-2.66.3-2.67.22-2.67 2.86 0 2.42 0 2.43 2.38 2.44 1.36 0 2.71-.03 4.07-.05.27 0 .63-.15.77.15.17.36-.21.54-.41.77-.61.68-1.34 1.07-2.28 1.13-1.11.06-2.22.3-3.33.33-.96.02-1.32.32-1.22 1.31.1.95.06 1.91.01 2.87-.04.68.14.97.88 1.05 2.51.26 5.02.3 7.53.11.24-.02.58-.28.71.14.09.3-.16.48-.37.68-1.09 1.05-2.4 1.52-3.88 1.63-2.15.16-4.31.16-6.46.07-.92-.04-1.83-.02-2.73.18-.66.15-.84-.11-.8-.75.13-2.03.2-4.06.27-5.42ZM36.48 118.17c-1.08 0-2.29.31-3.19-.09-.87-.38-.74-1.8-1.27-2.66-.19-.3-.35-.63-.46-.97-.28-.82-.81-1.04-1.66-.93-1.7.21-3.41.35-5.12.46-.99.06-1.64.43-1.95 1.42-.19.6-.48 1.18-.75 1.76-.23.48-.28 1.23-.95 1.25-.99.03-2-.05-2.96-.25-.4-.08-.08-.53.11-.76 2.81-3.5 4.92-7.43 6.89-11.44.65-1.32 1.33-2.63 1.68-4.07.16-.66 2.82-2.05 3.4-1.82.29.12.34.4.44.67 1.84 4.98 4.33 9.65 6.8 14.33.5.94 1.06 1.89 2.14 2.33.23.09.43.19.38.5-.07.41-.39.34-.65.34h-2.87v-.07Zm-9.05-12.52c-.9 1.87-1.69 3.56-2.51 5.23-.25.5-.27.82.41.87 1.61.12 3.22.15 4.95-.07-.95-2.02-1.85-3.92-2.84-6.03ZM93.29 26.8c-1.45.01-2.86-.22-4.28-.5-.7-.14-.94-.47-.75-1.17.2-.73.33-1.48.51-2.21.08-.33.07-.71.61-.72.49-.01.53.24.66.62.52 1.63 1.93 2.01 3.39 2.19 1.36.16 2.65-.11 3.47-1.37.85-1.31.42-2.69-1.15-3.42-1.37-.64-2.83-1.08-4.2-1.72-2.44-1.14-3.41-3.4-2.62-5.96.49-1.58 1.55-2.69 3.02-3.37 2.9-1.34 5.9-1.1 8.9-.4.52.12.59.43.35.77-.59.81-.09 2.1-1.18 2.64-.29.14-.41-.27-.57-.5-1.1-1.61-3.28-2.23-5.08-1.48-.77.32-1.24.86-1.33 1.69-.09.83.23 1.48.93 1.93.71.46 1.5.74 2.29 1.01.9.31 1.83.58 2.71.95 3.2 1.34 4.17 4.4 2.27 7.32-1.87 2.87-4.72 3.73-7.96 3.72ZM289.06 100.55c1.28-.05 2.55.11 3.79.41.31.07.73.1.62.54-.22.88-.53 1.75-.81 2.61-.17.52-.66.29-.95-.2-1.01-1.7-2.62-1.94-4.38-1.68-.98.15-1.72.66-1.89 1.72-.17 1.06.33 1.79 1.25 2.21.83.39 1.7.68 2.56 1 .49.18.99.31 1.47.49 3.89 1.45 4.81 5.11 2.05 8.25-1.44 1.64-3.33 2.44-5.46 2.68-1.96.22-3.9 0-5.82-.43-.66-.15-.96-.44-.74-1.16.21-.72.35-1.47.5-2.21.08-.39.18-.66.67-.64.45.01.45.27.55.6.48 1.6 1.86 1.97 3.27 2.15 1.37.18 2.65-.11 3.46-1.38.73-1.15.37-2.4-.87-3.15-1.38-.83-2.99-1.11-4.41-1.83-3.16-1.59-3.71-5.69-1.1-8.09 1.32-1.21 2.94-1.71 4.68-1.9.51-.05 1.04 0 1.55 0ZM206.95 114.46c-.21 1.61-1.28 2.67-2.52 3.21-3.52 1.54-7.17 1.59-10.66-.13-3.15-1.55-4.46-4.34-4.53-7.73-.07-3.35 1.35-5.99 4.28-7.63 3.99-2.23 8.26-2.12 12.57-1.09.65.15.86.5.55 1.13-.29.61-.57 1.22-.74 1.89-.18.7-.58.79-1.07.21-1.75-2.06-3.96-2.73-6.51-1.89-2.47.81-3.34 2.78-3.62 5.14-.05.43-.06.88-.04 1.31.11 2.72.83 5.21 3.45 6.53 2.66 1.34 5.34 1.01 7.89-.48.24-.14.47-.29.71-.44.03-.02.08-.01.25-.03ZM345.57 110.25c0-1.99-.01-3.98 0-5.97 0-.66-.21-.93-.9-.88-1.73.12-3.53-.2-5.14.77-.43.26-.63.03-.52-.39.25-.96.55-1.91.84-2.86.11-.36.36-.29.66-.25 5.29.56 10.59.42 15.89.09.29-.02.68-.29.86.1.17.36-.27.52-.44.76-1.13 1.63-2.89 1.54-4.54 1.52-1.27-.02-1.58.44-1.61 1.64-.12 4.18-.14 8.36.25 12.53.06.68-.17.82-.76.86-1.31.09-2.63.18-3.92.38-.83.13-1.07-.05-.95-.9.32-2.45.34-4.92.27-7.39ZM42.14 118.22c.6-.88.51-1.65.54-2.4.15-3.83.24-7.65 0-11.48-.07-1.13-.21-2.19-1.63-2.39-.29-.04-.42-.2-.37-.49.05-.31.18-.49.54-.5 2.2-.06 4.39-.15 6.59-.22.33-.01.76 0 .47.49-.65 1.07-.47 2.25-.49 3.37-.07 3.27.01 6.54-.04 9.81-.02.99.39 1.31 1.29 1.37 2.07.13 4.15.28 6.23.08.33-.03.81-.27.97.09.2.44-.32.65-.58.93-.77.84-1.76 1.2-2.87 1.31-3.47.32-6.94.07-10.65.02ZM111.52 17.07c0 2.63-.03 5.26.02 7.89.02.77-.16 1.05-.96 1.11-1.07.08-2.15.23-3.18.53-1.2.35-1.3-.12-1.25-1.15.2-4.22.29-8.45.09-12.67-.06-1.37-.04-2.8-1.88-3.12-.29-.05-.36-.29-.29-.55.08-.33.34-.4.64-.41 1.12-.04 2.23-.09 3.35-.13.52-.02 1.04 0 1.56-.04 1.92-.13 1.89-.14 1.85 1.84-.04 2.23 0 4.46 0 6.7h.05ZM230.98 17.08c0 2.63-.04 5.26.02 7.89.02.79-.21 1.03-.98 1.1-1.11.1-2.22.28-3.3.55-.93.23-1.18.04-1.14-.94.21-4.46.39-8.92.07-13.38-.09-1.21-.22-2.34-1.73-2.6-.31-.05-.48-.28-.38-.62.1-.33.36-.38.66-.38 1.28-.04 2.55-.08 3.83-.13.24 0 .48-.05.72-.01.74.12 1.65-.65 2.13 0 .33.45.04 1.37.03 2.07v6.45h.06ZM86.02 109.24c0 2.51-.03 5.02.02 7.53.01.73-.1 1.09-.92 1.16-1.03.09-2.06.29-3.06.53-1.01.25-1.4.09-1.32-1.1.24-3.94.29-7.88.13-11.83-.02-.48-.07-.95-.1-1.43-.05-1.04-.37-1.88-1.53-2.11-.35-.07-.62-.21-.52-.63.08-.33.32-.38.63-.4 2.03-.1 4.07-.06 6.09-.36.71-.1.58.44.58.88v7.76Z" class="cls-6"/><path d="M196.57 55.3c-.63-.17-1.13-.98-1.92-.26-.74.68-.86 1.47-.68 2.38.64 3.23-.14 6.19-1.77 8.96-.54.93-1.47.91-2.25.12-.99-1-1.46-2.23-1.7-3.58-.23-1.28-.47-2.56-.71-3.85.59.17.57 1.22 1.43.98-.1.38-.36.81-.26 1.14.37 1.24.74 2.48 1.07 3.74.12.45.67.81 1.22.81.35 0 .67-.24.8-.62.45-1.26.89-2.52 1.35-3.78.36-.99-.21-1.45-1.02-1.61-.72-.14-1.48-.09-2.22-.12-.06-.39.24-.59.48-.77.56-.42.48.74 1.11.46.78-.36-.43-.89.14-1.12.39-.16.82-.09 1.22.23.43.35.9.04.8-.4-.23-1.02.04-1.92.36-2.83.14-.39-.14-.35-.37-.39-.3-.05-.45.54-.76.19-.46-.47.5-.71.14-1.06-.34-.34-.77 0-1.21.15.01-.23 0-.39.04-.53.12-.38.34-.79-.14-1.05-.51-.28-.78-.05-.93.5-.11.38-.34.1-.53-.03-.39-.27-.38-.67-.37-1.07.47-.18 1.1-.44.6-1.01-.67-.76-.84.08-1.09.52-.63.1-1.1-.19-1.34-.71-.28-.61.32-.62.67-.83.31-.18.17-.57.2-.87 1.37.62 2.49 1.48 3.18 2.88.4.81 1.05 1.48 1.64 2.18.55.66 1.14.51 1.69.25.53-.25.67-.79.57-1.42-.39-2.43-1.7-4.22-3.59-5.78-1.55-1.28-3.11-2.44-5.04-2.99-.91-.26-1.86-.41-2.79-.6-.48-.1-.91-.28-1.42-.71 1.66-.51 3.09-.09 4.55.35 2.37.72 4.22 2.26 6.2 3.64.9.63 1.66 1.38 2.29 2.21.33.44.71.67 1.1.97-.51.05-1.02.01-1.12.75-.09.61-.19 1.1.62 1.24.23.04.26.29.25.49-.02.62-.56 1.33.43 1.74.16.07-.04.52-.39.56-.33.04-.49.22-.54.53ZM163.96 64.87c-.51-.22-1.05-.58-1.53-.05-.47.51-.72 1.1-.52 1.85.45 1.69 1.65 2.87 2.7 4.16 2.03 2.5 4.8 3.72 7.81 4.56.56.16 1.04.55 1.68.53.25 0 .4.28.32.53-.11.33-.37.46-.73.49-1.56.13-2.93-.51-4.35-.99-2.67-.92-4.57-3.01-6.87-4.5-.24-.16-.35-.52-.49-.8-.38-.75-.92-1.19-1.81-1.03.74-.5 1.6-.69 1.15-2.13-.23-.73-.34-1.79-.35-2.72 0-.62-.42-1.2-.29-1.86.03.02.07.04.09.07.45.66.72 1.59 1.79 1.39 1.02-.19 1.29-1.03 1.43-1.92.4.03.95-.15.96.54 0 .25.09.77-.19.7-1.43-.33-.43.86-.79 1.18ZM172.7 40.45c-1.29.69-2.47 1.54-3.67 2.39-1.62 1.15-3.07 2.44-4.27 4.02-.36.48-.72.95-1.21 1.31-.06-.37.02-.76-.3-1.1-.28-.29.03-.37.27-.43.21.21.42.52.74.16.11-.13.29-.38.06-.51-.36-.19-.5.28-.8.34l-.23-.95c.91.09 1.61-.03 2.1-1.02.48-.96 1.72-1.34 2.17-2.42.15-.35.64-.4 1.06-.4.32 0 .71.15.98-.2-1.1-.71-.98-.75-.08-1.85.62-.75.74-1.28 1.4-.05.2.37 1.2.36 1.78.7ZM172.39 80.64c4.88 1.06 9.33-.37 13.68-2.38-.38.58-.57 1.07.47.94-.86.73-1.95.77-2.98.93-.63.1-1.12.2-1.69.61-.88.64-2.02.96-3.09 1.29-.63.2-.74 0-.61-.77-2.34.28-4.69.57-7.03.85-.02-.11-.05-.21-.07-.32.49-.34 1.22-.43 1.32-1.17ZM159.98 69.67c-.82 1.04-.78 2.1.03 3.21.99 1.35 2.53 2.12 3.54 3.43-1.57-.07-2.25-.51-2.64-1.74-.29.01-.24.26-.29.43-.12.34-.37.42-.66.29-.33-.14-.27-.43-.17-.71q.31-.88-.38-1.71c-.32.17-.14.5-.24.74-.14.35-.58.4-.66.22-.28-.65-.83-1.87-.63-1.94.98-.36.68-1.33 1.17-1.87.27-.29.44-.7.94-.36ZM194.21 42.33c-.99-.58-1.98-1.15-2.97-1.73.98-.19 1.49-.79 1.54-1.78.02-.32-.09-.87.48-.7.37.11.58.57.36 1-.18.35-.51.64.08.93 1.08.54 1.28 1.31.51 2.28Z" class="cls-5"/><path d="M356.85 116.72c-.46.6-.22 1.05-.66 1.36-.48-.75-.19-1.54-.25-2.26-.02-.23.2-.32.41-.34.21-.01.38.06.47.28.15.36.3.71.46 1.08.12-.06.2-.08.23-.13.29-.4.18-1.05.79-1.23.15-.05.38 0 .38.18.02.75 0 1.49-.01 2.24 0 .04-.17.1-.17.1-.43-.64-1.82.56-1.65-1.28Z" class="cls-6"/><path d="M191.14 40.53c-2.05-1.13-4.23-1.88-6.56-2.19 1.2-.61 2.49-.42 3.67-.14.68.16 1.18.45 1.82-.05.31-.24.75-.18 1.15.16-.45.31-.84.59-1.21.85.08.74 1.33.44 1.13 1.37ZM199.04 48.57c.13-.6-.14-1.11-.47-1.53-1.1-1.39-1.96-2.99-3.48-4.02.47-.83 1.33-.44 2.01-.63.12-.03.36.12.28.29-.76 1.54.43 2.36 1.21 3.33.6.75 1.02 1.58.9 2.59-.01.12-.03.24-.18.19-.11-.04-.18-.15-.28-.22Z" class="cls-5"/><path d="M319.34 9.56q-.82 1.34-1.56 0c-.42.3.15.96-.51 1.22-.22-.66-.07-1.33-.11-1.98-.01-.23-.04-.5.32-.52.27-.02.44.11.53.37.14.37.3.72.46 1.1.1-.06.16-.08.2-.13.36-.41.18-1.46.94-1.28.66.15.21 1.02.3 1.57.04.25.1.55-.13.82-.62-.21-.06-.88-.45-1.16Z" class="cls-6"/><path d="M163.28 45.69c.08.32.15.63.23.95-.24.06-.54.14-.27.43.32.33.24.73.3 1.1-.11.13-.22.25-.33.38-.78-.08-.93.91-1.62.97v-.96c.33-.03.48-.21.46-.54-.02-.29-.21-.39-.46-.42 0-.27.05-.56-.02-.82-.19-.72-.64-1.6.76-.75.18.11.62-.22.94-.34Z" class="cls-4"/><path d="m176.48 39.01-3.57 1.29c.1-.54-.33-.79-.66-1.16.72.11 1.24-.69 1.97-.29.15.09.27-.05.37-.19.88-1.21 1.3 0 1.89.36ZM160.65 55.02c-.5 2.23-.19 4.49-.24 6.74 0 .38.17.76.25 1.14-.63-.02-.52-.5-.51-.88.02-.96 0-1.91-.4-2.81-.08-.17-.13-.42-.07-.58.39-1.08.29-2.12.03-3.24-.29-1.21.56-.36.93-.37ZM161.6 49.52c.7-.06.84-1.05 1.62-.97-.5 1.56-1.22 3.02-2.06 4.43-.16-.9.23-1.8-.02-2.7-.09-.34.14-.6.46-.75Z" class="cls-5"/><path d="M353.41 115.68c.75-.22 1.39-.28 2.32-.06-1.08.36-.97 1.07-.95 1.76 0 .25.11.63-.33.6-.33-.03-.22-.36-.24-.58-.04-.65.31-1.47-.8-1.73ZM315.65 10.79c-.8-.62.5-2.08-1.32-2.27.91-.39 1.56-.23 2.29-.15-1.36.41-.45 1.67-.98 2.42Z" class="cls-6"/><path d="M167.15 78.68c1.52.65 3.04 1.29 4.56 1.94-.58.02-1.15.13-1.67-.33-.24-.21-.72-.38-.99-.29-1.33.49-1.42-.67-1.9-1.32Z" class="cls-5"/><path d="M351.43 57.76c.85-.19 1.71-.39 2.56-.55.31-.06.75-.08.77.32.02.37-.42.26-.67.27-.87.04-1.75.18-2.62.04l.05-.08h-.09Z" class="cls-6"/><path d="M179.39 38.4c-.76.42-1.55.71-2.44.52.77-.38 1.39-1.45 2.44-.52ZM197.33 50l.71.06c-.06.16-.43.2-.21.44.26.29.31.58.03.81-.15.12-.5.17-.67.08-.4-.22-.04-.54-.01-.82.02-.19.1-.38.15-.57ZM164.96 77.29c.83.31 1.85.34 2.2 1.4-.95-.13-1.56-.8-2.2-1.4Z" class="cls-5"/><path d="M351.43 57.76h.09l-.05.08c-.73.4-1.51.29-2.29.2h-.06l.05-.04c.71-.5 1.48-.33 2.25-.25Z" class="cls-1"/><path d="M161.6 47.6c.25.03.44.13.46.42.02.33-.13.51-.46.54-.33-.03-.48-.21-.46-.54.02-.29.21-.39.46-.42ZM198.45 49.96c.18-.39.37-.79.55-1.18.02.16.03.32.06.47.05.25.52.37.27.7-.26.34-.58-.01-.88.01ZM199.55 50.93c-.1.05-.2.13-.29.14-.21 0-.24-.16-.19-.31.02-.08.15-.12.22-.18l.26.35ZM194.98 42.92c-.17-.13-.45-.1-.52-.37.14-.18.31-.25.51-.12.23.15.13.33.01.5ZM186.54 79.2c.04-.24.09-.47.41-.42.07.01.2.17.18.21-.11.28-.38.18-.59.21ZM183.07 38.07c-.41.3-.89.14-1.33.18.4-.38.88-.18 1.33-.18ZM181.03 38.25h-1.21c.4-.33.81-.34 1.21 0ZM168.97 38.13c.07.03.13.06.2.08-.03.07-.04.17-.09.19-.05.02-.13-.05-.19-.07.03-.07.06-.13.09-.2ZM184.14 38.22c-.1-.05-.21-.11-.31-.16.1.05.21.11.31.16ZM180.77 69.08c.12-.46-.17-.81-.38-1.2 1.27.04 1.05-1.09 1.29-1.7.2-.5.36-.91.81-1.2.97-.62.96-1.08-.19-2.03-.06 1.5-1.62 2.18-1.59 3.89-.46-.59-.64-1.28-1.38-1.06 2.14-1.34 3.31-3.2 3.15-5.78-.06-.95-1.04-1.96-1.81-1.89-.84.08-1.56 1.01-1.32 2.05.31 1.33-.18 2.08-1.35 2.54-.71.28-2.5-.31-3.15-.96-2.8-2.82-2.12-7.43.17-9.82.1.22.18.43.02.66-.22.3-.56.54-.08.95.43.37.94.45 1.28.19.54-.4 1.08-.37 1.66-.37-2.63 1.73-3.39 3.92-2.28 6.47.37.84.99 1.34 1.86 1.11.89-.23.97-1.09.9-1.86-.18-1.99 0-2.39 1.44-2.84 1.37-.43 2.66.1 3.45 1.35 1.86 2.93 1.1 8.31-1.48 10.53-.36.31-.53.81-1.03.97ZM166.41 59.53c-1.04.38-1.52 1.47-2.46 1.98-.27-2.53-.13-5.02.86-7.39.33-.79.87-1.54 1.8-1.76.98-.23 1.39.51 1.85 1.19.62.91.57 1.89.69 2.95.26 2.22.53 4.57 2.09 6.43.22.27.48.55.45.95-.42-.01-.9.13-.99-.52-.02-.13-.15-.35-.25-.35-1.37-.09-1.21-1.08-1.17-1.98.03-.58-.05-.98-.79-1-.31 0-.62-.3-.92-.47.88-.37 1.7-.79 1.21-1.99-.47-1.16-.91-2.33-1.46-3.45-.34-.7-.84-.75-1.36-.06-.92 1.25-.9 2.81-1.44 4.19-.21.53.37 1 .96 1.14.3.07.62.09.93.13ZM177.9 50c-.32.07-.63.29-.12.43.76.21.73.76.52 1.17-.36.69-.75.09-1.12-.14-.47-.3-.93-.45-1.31.15-.19.3-.52.31-.85.3.81-1.36 2.02-2.28 3.36-3.04.15.51-.5.68-.49 1.13Z" class="cls-5"/><path d="M174.43 65.76c-1.59.08-2.62-.63-2.75-1.89.92.63 1.83 1.26 2.75 1.89ZM179.32 65.77c.1 1.05-.66.34-1 .48.3-.23.6-.46 1-.48ZM177.91 53.35c.22-.79.79-1 1.54-.97.61.03 1.11-.05.6-.86-.36-.58.21-.7.45-.53.78.53 1.69.38 2.72.54-.65.62-1.34.14-1.9.61.8.43 1.86.3 2.32 1.21-1.91-.65-3.83-.86-5.75-.02ZM168.06 69.63c.31-.62.3-.59 1.36-.49.86.08 1.88-.25 2.24.97-.41.05-.85-.12-1.25.11.05.49.79.25.78.78-1.18-.14-2.26-.52-3.13-1.36ZM163.97 64.87h1.76c-.83.53-.53.89-.02 1.41.33.34.42.92.21 1.44-.65-.95-1.3-1.9-1.94-2.84ZM165.92 67.72c1.43 0 1.67.24 1.93 1.85-.73-.53-1.49-1.02-1.93-1.85ZM187.05 57.42c.7.34.28-.59.78-.6.28.67.22 1.27-.36 1.8-.3-.35-.41-.76-.42-1.21Z" class="cls-5"/><path d="M269.64 17.35c-.06 1.54-.15 2.93-.61 4.27-.66 1.93-1.91 3.2-4.01 3.45-2.15.25-3.92-.52-4.98-2.38-1.85-3.23-2.03-6.67-.67-10.11.78-1.99 2.48-2.81 4.57-2.86 2.06-.05 3.64.74 4.64 2.57.9 1.62 1 3.41 1.05 5.06ZM312.93 109.3c-.01 1.8-.16 3.3-.75 4.73-1.42 3.43-5.83 4.07-8.21 1.21-2.09-2.52-2.52-8.22-.81-11.01 1.11-1.8 2.82-2.37 4.82-2.26 2.03.12 3.41 1.21 4.2 3.05.62 1.45.78 2.99.75 4.28ZM326.38 105.39v-1.43q0-1.94 1.99-1.61c2.11.36 3.16 1.22 3.31 2.7.24 2.51-2.34 4.52-4.79 3.76-.46-.14-.51-.41-.5-.8.01-.87 0-1.75 0-2.62Z" class="cls-4"/><path d="M188.98 60.07c.31-.15.62-.3.94-.44.74.03 1.5-.03 2.22.12.82.16 1.38.63 1.02 1.61-.46 1.26-.89 2.52-1.35 3.78-.13.37-.45.62-.8.62-.55 0-1.1-.36-1.22-.81-.33-1.26-.7-2.49-1.07-3.74-.1-.32.16-.76.26-1.14Z" class="cls-1"/><path d="M189.41 51.43c.25-.43.41-1.28 1.09-.52.51.57-.13.82-.6 1.01 0-.31-.16-.46-.47-.47h-.01Z" style="fill:#fefefe;stroke-width:0"/><path d="M163.52 46.64c.29-.06.44-.54.8-.34.23.12.05.38-.06.51-.32.36-.52.05-.74-.16Z" class="cls-4"/><path d="M177.29 52.59c.02.23-.17.23-.31.25-.16.02-.34 0-.38-.18-.05-.23.16-.23.3-.25.16-.02.31.01.39.18ZM189.42 51.44c.31 0 .46.16.47.47-.31 0-.46-.16-.47-.47ZM177.9 50s.07.04.1.05c-.03-.02-.07-.04-.1-.06Z" class="cls-5"/><path d="M166.41 59.53c-.31-.04-.62-.06-.93-.13-.6-.15-1.17-.62-.96-1.14.54-1.38.52-2.95 1.44-4.19.51-.69 1.01-.65 1.36.06.55 1.12.99 2.29 1.46 3.45.49 1.2-.33 1.62-1.21 1.99-.38 0-.77-.02-1.15-.02Z" class="cls-3"/><path d="M172.92 67.55c-.37-.42-.33-.86-.15-1.43.52.5.29.97.15 1.43ZM171.65 70.09c.29.08.66-.14.88.32-.43.22-.74.24-.88-.32ZM166.78 65.98c-.03.07-.04.17-.09.19-.05.02-.13-.05-.19-.07.03-.07.04-.17.09-.19.05-.02.13.05.19.07Z" class="cls-5"/></svg>