<svg xmlns="http://www.w3.org/2000/svg" id="Capa_1" data-name="Capa 1" viewBox="-0.03 -0.03 407.72 108.42"><defs><style>.cls-1,.cls-2{fill:#f36f2d;stroke-width:0}.cls-2{fill:#41444c}</style></defs><path d="M138.2 36.47C136.22 18.05 154.25-.33 174.72 0c19.6.32 36.57 16.72 36.43 36.14-.14 19.83-14.7 36.37-36.28 36.63-21.88.26-38.16-17.67-36.66-36.31Zm36.28-26.38c-12.9-.16-26.73 9.32-26.83 26.32-.09 14.6 11.81 26 26.44 26.51 14.42.51 27.03-11.99 27.07-26.28.03-14.55-11.95-26.48-26.68-26.55Z" class="cls-1"/><path d="M228.05 62.56c-4.68-13.16-8.83-24.84-13-36.52-.61-1.72-1.23-3.46-1.83-5.13-2.07-5.79-2.66-5.55-.61-6.86 3.52-2.24 8.94.26 10.38 4.08 1.69 4.51 3.24 9.07 4.85 13.61.6 1.69 2.16 4.63 2.38 4.78 3.89-7.29 8.25-14.51 12.7-22.86l12.1 23.97c2.69-6.87 5.02-13.44 7.42-19.69 1.38-3.58 7.13-5.66 10.56-3.98 1.25.61 1.05 1.44.69 2.44-5.23 14.7-10.44 29.41-15.69 44.1-.08.22-.48 1.75-1.04 2.06 0 0 .1-.4-11.23-23.73 0 0-1.11-2.9-2.64-2.88s-1.97 1.81-2.56 2.93c-3.95 7.43-7.86 14.89-12.48 23.68ZM89.16 13.99v40.84c0 5.6-2.98 7.6-8.4 5.86-2.13-.68-1.61-2.25-1.62-3.63-.05-5.9-.02-11.8-.02-18.36-5.07 3.42-7.96 7.92-11.44 11.75-2.81 3.1-4.41 2.17-6.55-.49-3.21-3.98-6.66-7.77-11.09-12.89 0 7.25-.28 13.09.1 18.88.27 4.18-1.36 4.97-5.12 4.93-3.63-.04-5.26-.59-5.17-4.86.3-13.3.09-26.61.07-39.92 0-.82-.15-1.66 1.04-2.65 6.39 6.87 12.96 13.65 19.19 20.72 4.15 4.72 4.14 5.01 8.54.38 5.38-5.65 10.53-11.5 15.87-17.19 1.17-1.25 2.05-3.01 4.61-3.36ZM320.12 36.93c0-6.48.12-12.97-.05-19.44-.08-2.83.3-3.75 3.7-3.7 6.29.09 12.62-.65 18.87.75 6.38 1.43 10.79 5.05 12.43 11.48 1.55 6.07-.28 11.26-5.19 15.04-2.22 1.7-1.99 2.89-.65 4.85 2.61 3.84 5.05 7.8 7.48 11.76 1.05 1.71 1.27 2.93-1.55 3.14-5.48.41-9.5-.41-12.44-6.2-1.2-2.36-2.81-4.49-4.03-6.84-1.49-2.87-4-2.41-6.48-2.38-1.76.02-2.12 1.76-2 4.71.07 1.65.1 3.28 0 4.97-.28 4.59-1.01 6.08-5.67 5.81-3.4-.2-4.65-.98-4.5-4.53.27-6.47.08-12.96.08-19.44Zm10.21-7.41c.09 4.83-.47 7.16 5.18 6.69 6.59-.54 9.08-1.76 9.23-6.33.14-4.13-2.4-5.78-8.2-6.04-4.37-.19-6.08-.61-6.21 5.68ZM280.21 36.98c0-6.48.11-12.97-.05-19.45-.07-2.76.71-3.83 3.62-3.77 8.15.16 16.31.24 24.45-.02 4.04-.13 3.47 2.25 3.55 4.8.08 2.38.31 5.59-3.42 5.42-4.98-.22-9.98.1-14.96-.09-3.47-.13-3.07 2.05-3.11 4.24-.04 2.29-.18 4.3 3.19 4.15 4.65-.2 9.32.09 13.97-.09 3.98-.15 3.49 2.46 3.6 4.99.12 2.73-.41 4.5-3.74 4.37-4.48-.17-8.99.17-13.47-.1-4.15-.25-3.53 2.49-3.54 4.91-.02 2.44-.6 5.18 3.46 5.05 5.15-.17 10.32.17 15.47-.09 4.34-.22 3.19 2.76 3.35 5.01.17 2.41.29 4.58-3.41 4.49-8.48-.21-16.97-.17-25.45-.01-3.02.06-3.59-1.24-3.54-3.88.14-6.65.05-13.3.04-19.94ZM.06 36.82c0-6.32.12-12.65-.05-18.97-.08-2.9.57-4.18 3.82-4.1 8.32.21 16.66.25 24.98 0 4.63-.14 3.4 2.94 3.5 5.36.09 2.44.68 5.12-3.47 4.87-4.65-.28-9.33.14-13.98-.15-3.54-.22-4.09 1.32-4.05 4.38.04 2.88.62 4.27 3.86 4.08 4.32-.25 8.67.11 12.98-.11 3.95-.2 3.18 2.47 3.16 4.66-.02 2.15.93 4.9-3.08 4.71-4.32-.21-8.68.22-12.98-.12-4.28-.33-3.83 2.3-3.91 5.02-.08 2.97.08 5.24 4.13 5 4.65-.28 9.33.12 13.98-.12 3.75-.2 3.45 2.13 3.36 4.51-.08 2.36.81 5.09-3.41 4.98-8.49-.22-16.99-.14-25.48-.03-2.63.03-3.47-.94-3.42-3.51.13-6.82.04-13.64.05-20.47ZM98.27 37.15c0-6.65.05-13.31-.04-19.96-.03-2.16-.07-3.07 2.95-3.39 6.27-.65 12.63-.62 18.91.63 7.26 1.45 12.54 6.11 13.49 12.12 1.18 7.44-1.94 13.87-8.48 17.63-3.6 2.07-7.51 1.1-11.25 1.03-3.74-.07-4.73 1.13-4.76 4.89-.01 1.81.09 3.01.07 4.48-.08 5.17-.93 6.23-6.21 6.32-3.63.06-4.97-.96-4.77-4.8.33-6.3.09-12.64.08-18.96Zm10.85-8.09q0 7.02 5.33 7.03c6.78.01 8.38-1.14 8.47-6.12.09-4.99-1.39-5.73-8.38-6.16-4.85-.3-5.69-.03-5.42 5.26Z" class="cls-2"/><path d="M119.32 108.17c-5.04.89-5.47-1.21-3.85-5.25 5.99-14.96 16.14-26.07 30.41-33.47 1.62-.84 10.6 2.88 11.11 4.53.42 1.34-.59 1.68-1.52 2.07-14.27 6.02-24.6 15.99-30.56 30.37-1.15 2.77-3.7 1.46-5.58 1.75ZM228.99 108.22c-2.76.6-4.62-.5-6.02-3.69-5.48-12.53-14.6-21.6-27.08-27.3-1.32-.6-3.3-.89-3.5-2.49-.25-2.02 2.6-3.06 3.29-3.27 4.75-1.44 7.56-1.42 10.84-.21 13.59 5.04 21.13 18.08 26.7 31.33 2.35 5.58 2.24 5.63-4.23 5.62ZM395.69 13.77c10.64 0 12.47 6.64 8.33 14.3-.65 1.46-.31 1.66 2.34 5.38.79 1.11 2.15 2.98.64 4.54-1.38 1.42-3.88 1.12-5.28-.89-1.13-1.63-2.1-3.38-3.03-5.13-.7-1.32-1.6-1.95-3.15-1.85s-1.62 1.83-1.65 3.05c-.03.99.06 2.01.06 3-.01 2.09-1.32 2.36-2.99 2.37-1.96.01-2.58-.97-2.56-2.79.05-6.31-.06-12.62.06-18.92.06-3.05.23-3.05 7.25-3.05Zm-1.73 7.78c-.11 2.06-.13 3.84 2.65 3.79 2.47-.05 4.38-.98 4.68-3.48.3-2.53-1.51-3.35-3.8-3.47-2.41-.13-3.6.53-3.53 3.17ZM383.95 26.15c0 3.15-.09 6.31.02 9.46.07 2.17-.85 2.96-2.94 2.92-1.92-.03-2.71-.88-2.62-2.74.05-.99.02-2 .02-2.98.03-5.08-.74-5.18-4.84-5.19-4.41-.02-5.75-.83-5.76 5.75 0 .49 0 .99.02 1.49.09 1.94.08 3.65-2.68 3.69-2.64.04-2.91-1.42-2.89-3.5.06-5.81.05-11.62 0-17.43-.02-2.15 0-3.99 3.02-3.88 2.85.1 2.24.95 2.49 3.8.46 5.64.84 5.66 5.39 5.61 4.2-.05 5.18 1.16 5.27-5.25-.18-3.6-.57-4.13 2.64-4.2 3.62-.08 2.8 2.45 2.84 4.47.06 2.65.01 5.31 0 7.97Z" class="cls-1"/></svg>