<svg xmlns="http://www.w3.org/2000/svg" id="Capa_1" data-name="Capa 1" viewBox="0 0 404 381.17"><defs><linearGradient id="Degradado_sin_nombre_3" x1="-.98" x2="318.83" y1="99.05" y2="99.05" data-name="Degradado sin nombre 3" gradientUnits="userSpaceOnUse"><stop offset="0" stop-color="#a91917"/><stop offset=".07" stop-color="#a72522"/><stop offset=".2" stop-color="#a2453f"/><stop offset=".37" stop-color="#9b796f"/><stop offset=".47" stop-color="#968e8c"/><stop offset=".63" stop-color="#848a97"/><stop offset="1" stop-color="#1c5e95"/></linearGradient><style>.cls-2{stroke-width:0;fill:#a72420}</style></defs><text style="fill:#07598c;font-family:UDDigiKyokashoN-R,&quot;UD Digi Kyokasho N-R&quot;;font-size:22px" transform="matrix(.84 0 0 1 13.95 278.33)"><tspan x="0" y="0">relationships over transactions</tspan></text><path d="M221.45 234.66c-2.19.37-3.82.06-5.5-1.35-3.22-2.71-8.17-1.98-11.01 1.29-2.95 3.39-2.95 8.99 0 12.05 4.15 4.31 10.42 3.89 13.45-.91.29-.46.87-.92.61-1.51-.29-.64-1.02-.35-1.55-.36-2.51-.03-5.03-.07-7.54.02-1.2.04-1.45-.44-1.42-1.51.03-1.02 0-1.76 1.43-1.73 3.95.09 7.9.07 11.85 0 1.35-.02 1.47.52 1.33 1.7-.67 5.74-5.12 9.94-11.12 10.37-5.75.4-10.93-3.37-12.34-8.98-1.45-5.8 1.46-11.84 6.87-14.26 5.04-2.25 11.13-.47 14.47 4.25.16.23.26.5.47.93ZM123.35 234.76c-.65.92-.4 1.73-.41 2.47-.03 4.52-.05 9.04.01 13.56.02 1.23-.36 1.62-1.57 1.55-1.01-.06-1.76 0-1.75-1.42.07-6.89.04-13.78.06-20.67 0-.52-.21-1.34.68-1.28 1.19.09 2.56-.67 3.49.85 1.6 2.63 3.32 5.18 4.99 7.77 1.81 2.82 3.61 5.65 5.49 8.61.73-.8.48-1.61.48-2.32.03-4.45.07-8.9-.02-13.35-.03-1.37.39-1.65 1.68-1.67 1.38-.02 1.66.46 1.65 1.74-.06 6.53-.01 13.06-.06 19.59 0 .69.49 1.89-.56 2.01-1.15.13-2.56.7-3.49-.79-1.85-2.98-3.79-5.9-5.69-8.86-1.64-2.56-3.28-5.13-4.99-7.81ZM81.33 228.54c6.64.01 12.08 5.53 12.04 12.24-.03 6.57-5.45 11.93-12.1 11.97-6.93.04-12.08-5.24-12.04-12.35.03-6.67 5.34-11.87 12.1-11.86Zm-.12 21.1c4.74.06 8.67-3.85 8.77-8.74.1-5.04-3.65-9.08-8.54-9.22-4.85-.13-8.87 3.82-8.93 8.78-.07 5.2 3.64 9.11 8.7 9.18ZM257.05 228.54c6.72 0 12.13 5.45 12.1 12.19-.03 6.61-5.45 12.01-12.07 12.02-6.76.02-12.22-5.38-12.23-12.1 0-6.71 5.43-12.11 12.19-12.11Zm-.11 21.11c4.88 0 8.83-3.98 8.86-8.91.03-4.96-3.87-9.01-8.74-9.06-4.89-.06-8.72 3.86-8.75 8.94-.02 5.1 3.73 9.04 8.62 9.03ZM111.16 246.35c.66-1.58.36-2.95.38-4.27.04-3.87.08-7.75-.03-11.62-.05-1.52.68-1.5 1.8-1.55 1.28-.05 1.54.44 1.53 1.61-.05 6.53-.01 13.06-.07 19.59 0 .73.6 1.98-.64 2.14-1.23.16-2.63.57-3.58-1.06-1.69-2.91-3.6-5.68-5.42-8.51-1.65-2.58-3.3-5.17-4.95-7.75-.85.41-.5 1.07-.51 1.56-.03 4.59-.03 9.19 0 13.78 0 1.18.19 2.12-1.67 2.13-1.97 0-1.6-1.12-1.61-2.2-.01-6.39-.03-12.77.02-19.16 0-.69-.51-1.9.56-1.99 1.21-.11 2.68-.76 3.65.87 1.62 2.7 3.38 5.32 5.09 7.97 1.77 2.76 3.55 5.51 5.46 8.47ZM23.74 228.54c6.68.03 12.06 5.51 12.04 12.26-.02 6.55-5.49 11.94-12.14 11.95-6.77.01-12.19-5.42-12.12-12.15.07-6.82 5.41-12.09 12.22-12.06Zm-.38 21.09c5.02.08 8.88-3.68 8.95-8.71.08-5.23-3.67-9.23-8.66-9.26-4.82-.03-8.76 3.99-8.82 8.97-.05 4.85 3.81 8.91 8.52 8.99ZM236.07 243.87c2.09 2.81 4.04 5.44 6.03 8.11-3.2.89-3.82.64-5.54-1.86-1.82-2.64-3.72-5.23-5.78-8.11-.68 1.87-.28 3.56-.37 5.19-.06 1.07-.08 2.16.02 3.22.14 1.49-.41 1.91-1.92 1.96-1.65.05-1.44-.86-1.44-1.86 0-6.52.08-13.05-.04-19.57-.03-1.79.58-2.17 2.17-2.04 2.49.22 5.01-.26 7.5.3 3.69.83 5.53 2.9 5.77 6.47.27 4.14-1.19 6.4-4.98 7.71-.4.14-.81.27-1.41.47Zm-5.67-7.46v1.72c.02 3.5.5 3.92 3.95 3.24.72-.14 1.38-.6 2.06-.93 2.29-1.09 3.31-3.13 2.62-5.23-.79-2.41-4.15-3.91-7.7-3.07-2.04.49-.46 2.43-.92 3.62-.07.19-.01.43 0 .64ZM66.81 246.59c-2.57 4.9-8.18 7.2-13.64 5.72-5.1-1.37-9.02-6.81-8.78-12.17.26-5.7 4.46-10.49 10.11-11.51 4.88-.88 10.56 1.95 12.36 6.27-1.92.06-3.55.3-5.26-1.31-3.21-3.02-8.66-2.37-11.57.98-3.05 3.51-2.89 9.25.34 12.36 3.62 3.48 7.73 3.73 11.52.47 1.59-1.36 3.2-.59 4.92-.82ZM272.68 237.83c0-2.51.08-5.02-.03-7.53-.06-1.47.77-1.36 1.76-1.38 1.05-.02 1.74.04 1.72 1.45-.08 4.73-.1 9.47 0 14.2.08 3.59 1.72 5.23 4.69 5.04 2.5-.16 4.03-1.95 4.05-4.86.03-4.73.07-9.47-.02-14.2-.03-1.39.43-1.7 1.7-1.64 1.1.05 1.86 0 1.82 1.54-.11 4.87.02 9.75-.07 14.63-.09 4.65-3.19 7.64-7.77 7.69-4.54.05-7.63-2.92-7.8-7.61-.09-2.44-.02-4.88-.02-7.31h-.02ZM142.59 240.41c0-3.3.04-6.61-.03-9.91-.02-1.17.24-1.62 1.52-1.59 3.16.09 6.32.08 9.48-.01 1.31-.04 1.67.33 1.71 1.67.04 1.54-.69 1.56-1.81 1.53-2.01-.06-4.02.04-6.03-.05-1.24-.05-1.73.41-1.56 1.62v.22q-.07 5.12 5.08 5.12c.86 0 1.73.05 2.59 0 1.07-.06 1.69.07 1.73 1.45.04 1.48-.6 1.63-1.78 1.59-2.08-.07-4.17.02-6.25-.04-1.03-.03-1.46.37-1.37 1.38.01.14 0 .29 0 .43q-.15 5.43 5.25 5.41c.79 0 1.59.05 2.37-.02 1.24-.11 1.79.21 1.77 1.63-.02 1.31-.53 1.54-1.67 1.51-3.16-.06-6.32-.09-9.48 0-1.27.03-1.57-.42-1.55-1.6.06-3.45.02-6.9.02-10.34ZM292.65 240.52c0-3.3.05-6.6-.03-9.9-.03-1.25.2-1.83 1.62-1.71 2.7.23 5.43-.27 8.13.43 3.45.9 5.39 3.3 5.33 6.81-.06 3.47-2.1 6.01-5.51 6.66-1.4.27-2.86.44-4.27.34-1.59-.1-1.93.5-1.85 1.94.11 2-.05 4.02.05 6.02.08 1.64-1.05 1.14-1.87 1.22-.92.08-1.66.06-1.63-1.28.08-3.51.03-7.03.03-10.54Zm3.45-4.59c0 1.08-.01 2.15 0 3.23.01.85.39 1.5 1.31 1.2 1.31-.42 2.68-.36 4-.65 1.57-.35 2.5-1.4 2.77-2.94.28-1.52-.16-2.91-1.47-3.79-1.85-1.24-4.07-1.19-6.04-.74-1.26.29-.35 2-.58 3.05-.04.21 0 .43 0 .64ZM176.61 240.84c0-3.44.07-6.88-.04-10.32-.04-1.42.51-1.6 1.74-1.63 1.32-.02 1.71.34 1.69 1.69-.08 5.59.02 11.18-.06 16.77-.02 1.5.41 2.03 1.93 1.9 1.64-.13 3.3.04 4.94-.04 1.35-.07 1.27.75 1.29 1.65.01.88-.05 1.51-1.23 1.49-3.08-.06-6.17-.07-9.25 0-1.2.03-1-.71-1.01-1.4v-10.11ZM160.73 240.54c0-3.37.06-6.75-.03-10.12-.03-1.27.42-1.58 1.59-1.52 1.07.06 1.89-.06 1.87 1.52-.09 5.52.04 11.05-.07 16.57-.03 1.71.3 2.5 2.18 2.27 1.27-.16 2.58-.03 3.87-.02 1.04 0 2.11-.35 2.1 1.49-.01 1.66-.8 1.65-1.99 1.63-2.58-.04-5.17-.07-7.75.02-1.33.05-1.87-.23-1.82-1.73.13-3.37.04-6.74.04-10.12ZM39.69 229.42c1.44-.33 1.93.16 1.72 1.66-.28 1.98-.35 3.99-.44 5.99-.04.92-.43 1.22-1.33 1.21-.93-.01-1.02-.53-1.05-1.24-.1-2.07-.18-4.15-.37-6.22-.11-1.22.22-1.77 1.47-1.4Z" class="cls-2"/><path d="M319.81 94.51c0-1.34-.59-1.51-1.7-1.49-4.17.04-8.33.02-12.5.02-23.27.04-46.55.08-69.82.13-1.59-.17-3.17-.18-4.76 0h-5.16c-1.45-.18-2.89-.18-4.34 0a.649.649 0 0 0-.39 0c-6.03-.06-12.06-.05-18.08-.24-1.66-.05-3.87.99-4.87-.41-.87-1.22-.51-3.32-.7-5.02-1.38-12.98-5.19-25.19-11.59-36.57-.42-.74-.4-1.01.29-1.45 2.05-1.31 4.01-2.77 6.08-4.04 9.66-5.95 20.17-8.72 31.53-8.43 5.29.14 10.36 1.34 15.42 2.69.11.09.24.12.38.1.65.52 1.4.74 2.2.86.07.07.15.11.25.1.97.72 2.04 1.24 3.2 1.55 1.36.79 2.75 1.55 4.09 2.38 6.62 4.07 11.99 9.57 17.12 15.3.82.92 1.63 1.37 2.92 1.37 13.43-.04 26.86-.01 40.3-.02.61 0 1.26.22 1.97-.3-1.18-2.2-2.39-4.38-3.53-6.6-7.19-13.93-16.82-25.83-29.47-35.18-9.07-6.71-18.91-11.95-29.85-14.95-1.38-.7-2.82-1.2-4.38-1.26-.52-.4-1.14-.37-1.74-.41-.32-.14-.63-.33-.96-.4-13.78-2.99-27.59-3.01-41.37-.09-14.09 2.98-26.84 8.94-38.27 17.7-1.11.85-1.83.94-2.93.03-1.36-1.13-2.75-2.28-4.42-2.98.02.29.02.59 0 .89.01-.3.02-.59 0-.89-7.93-5.69-16.69-9.64-25.97-12.52C122.05 2.3 115.21.87 108.17.52 97.79-.63 87.54.26 77.37 2.42c-4.58.97-8.92 2.71-13.35 4.24-5.93 2.05-11.38 4.84-16.68 8.08-11.06 6.8-20.38 15.46-28.11 25.89C9.3 54.05 3.29 69.11.95 85.5c-1.56 10.94-1.2 21.97 1.06 32.92 3.99 19.4 12.9 36.1 26.76 50.19 3 3.04 5.98 6.13 9.6 8.49.17.36.42.59.83.62.12.34.37.53.72.58l.09-.08-.08.1c6.14 4.9 12.95 8.69 20.14 11.75 9.33 3.98 19.01 6.67 29.17 7.44.63.12 1.25.33 1.88.36 9.91.43 19.77.21 29.51-2.07 11.42-2.66 22.13-6.94 31.93-13.43.71-.22 1.32-.59 1.78-1.19 1.95-.94 3.58-2.37 5.3-3.65.75-.55 1.2-.67 2.01-.02 4.49 3.59 9.35 6.63 14.42 9.34 16.44 8.8 34.03 12.2 52.55 11.02 2.83-.18 5.71-.3 8.46-1.22.78 0 1.57.02 2.28-.41.55.06 1.09.07 1.58-.24 2.35-.6 4.77-1.02 7.09-1.65 11.95-3.27 22.9-8.66 32.86-16.03 10.57-7.81 19.14-17.43 25.69-28.84 9.78-17.04 13.36-35.56 13.22-54.99Zm-7.92 4.8s-.08-.01-.12-.02c.04 0 .08.01.12.02Zm-.63-.07c-.21 0-.43.01-.64.03.21-.01.43-.03.64-.03Zm-116.87 30.53c10.19.12 20.39.12 30.59.13 15.15.02 30.31.02 45.46.03.79 0 1.58-.06 2.36-.09-.36-.35-.77-.45-1.19-.45.42 0 .83.1 1.19.45.68.5.04.89-.15 1.25-2.09 3.85-4.65 7.38-7.53 10.68-4.86 5.57-10.68 9.91-17.17 13.38-.97.28-1.91.63-2.69 1.3l-.81.3c-4.77 1.55-9.5 3.19-14.53 3.82-9.51 1.19-18.73.25-27.7-3.26-5.5-2.15-10.52-5.08-15.25-8.58-.97-.72-1.29-1.21-.62-2.41 2.77-4.95 5.09-10.11 6.84-15.52.18-.54.18-1.05 1.2-1.04Zm7.72-6.15c.73.15 1.47.23 2.2.24-.73 0-1.47-.08-2.2-.24Zm45.72 33.37c-.43-.08-.89.02-1.34.03.45 0 .91-.11 1.34-.03Zm-.21 2.13c.07.07.13.15.19.23-.06-.07-.13-.16-.19-.23ZM237.05 34.93c.92.1 1.81 0 2.65-.37-.84.37-1.73.46-2.65.37Zm5.44 3.42c-.12-.05-.24-.1-.35-.15.12.05.24.1.35.15Zm-.15.34v.02-.02Zm.32-4.12h.07-.07Zm.2-.02c.12-.02.24-.04.36-.05-.12.01-.24.03-.36.05ZM167.4 24.19c12.47-9.1 26.28-14.78 41.62-16.79 12.19-1.6 24.17-.73 35.99 2.57.34.09.71.08 1.06.12 8.47 2.78 16.6 6.29 24.08 11.22 12.46 8.2 22.37 18.76 29.72 31.76.81 1.43.62 1.73-1 1.72-8.97-.05-17.95-.03-26.92.03-1.05 0-1.68-.41-2.38-1.12-3.72-3.85-7.38-7.78-11.72-10.99-4.51-3.34-9.23-6.31-14.56-8.2-.34-.46-.86-.45-1.35-.5-.18-.07-.36-.15-.54-.23-.1-.07-.21-.1-.33-.1-3.88-1.5-7.9-2.18-12.04-2.69-4.07-.5-8.06-.7-12.13-.37-12.2 1-23.14 5.27-32.88 12.58-1.52 1.14-2.09.89-3.1-.55-3.94-5.64-8.1-11.12-13.53-15.48-1.21-.97-1.58-1.8.03-2.97ZM39.5 175.36s.04-.06.06-.08c-.02.02-.04.05-.06.08Zm88.67 11.62c-10.07 3.26-20.4 4.86-31 4.55-.78-.02-1.57.03-2.35.05-6.37-.35-12.63-1.41-18.83-2.91-11.72-2.85-22.21-8.22-31.9-15.28-.45-.33-.96-.59-1.44-.88-.26.76-.76 1.45-.87 2.25.12-.81.61-1.49.87-2.25-10.07-8.18-18.54-17.74-24.69-29.21-9.57-17.85-13.24-36.83-10.52-56.96.93-6.86 2.41-13.68 4.97-20.04 6.8-16.91 17.18-31.3 32.05-42.17.96-.7 1.95-1.37 2.92-2.06 6.17-4.09 12.72-7.54 19.65-10.04 6.18-2.23 12.61-3.8 19.19-4.63 8.02-1.01 16.04-.93 24.07-.38 4.32.99 8.76 1.34 13.02 2.62 3.89 1.17 7.99 1.91 11.61 3.65 5.83 2.8 11.73 5.57 16.97 9.47.17.13.38.19.58.28.8-.45 1.57-.98 2.41-1.34-.84.36-1.61.89-2.41 1.34 6.54 4.84 12.61 10.19 17.8 16.47 6.73 8.14 11.97 17.14 15.66 27.07 4.47 12.04 6.41 24.47 5.81 37.25-.63 13.29-4.13 25.85-10.22 37.7-.79 1.54-1.31 1.24-2.25.24-7.29-7.74-12.24-16.76-14.79-27.07-.55-2.23.49-4.37.77-6.56 1.72-13.24-.62-25.84-5.83-38-.05-.12-.19-.21-.28-.31-.12-.33-.21-.68-.36-1-5.07-10.73-12.04-19.78-21.86-26.76-9.48-6.74-19.88-10.31-31.32-11.33-20.45-1.7-38.3 4.01-52.88 18.76-4.43 4.48-8.28 9.47-10.92 15.28l-.1.16c-.55.36-.76.91-.82 1.53-.23.36-.51.69-.69 1.07-6.05 12.84-8.91 26.25-6.92 40.46 1.18 8.43 3.61 16.49 7.59 24.05.22.52.38 1.09.89 1.42-.03.1 0 .18.09.23.08.27.12.57.26.8 11.32 19.51 27.96 30.84 50.63 32.87 4.28.61 8.57.55 12.86.02-.58-.04-1.16-.09-1.74-.13.58.04 1.16.09 1.74.13 11.98-.83 22.81-4.84 32.43-12 1.62-1.21 2.23-.94 3.26.56 3.42 4.98 7.26 9.62 11.72 13.72q2.43 2.72-.61 5.04c-.28.21-.51.49-.76.74-7.38 4.73-15.07 8.81-23.44 11.52ZM158.6 72.79c0 .2.02.4.05.6-.03-.2-.04-.4-.05-.6Zm0-.01Zm.11-1.38Zm-28.97 62.63c1.58 4.25 3.3 8.48 5.68 12.36.95 1.55.82 2.35-.68 3.47-11.07 8.21-23.57 11.56-37.2 11.24-.76-.02-1.57-.34-2.29.23-8.08-.65-15.74-2.73-23.07-6.24-4.39-2.1-8.08-5.07-11.78-8.13-6.85-5.66-11.29-13.04-15.17-20.85-.25-.51-.55-.99-.83-1.48-.32 1.65-.68 3.29-.66 4.94-.02-1.65.34-3.3.66-4.94.03-.14 0-.25-.11-.35-.03-.7-.24-1.33-.73-1.85-1.84-5.2-3.28-10.48-3.95-15.99-1.24-10.17.06-19.97 3.61-29.53.15-.4.24-.81.36-1.22 2.3-5.15 4.81-10.18 8.14-14.78 9.39-12.97 21.91-20.82 37.77-23.25 5.76-.88 11.54-.82 17.32-.44 2.66.55 5.34 1.02 7.97 1.68 7.52 1.88 14.4 5.1 20.48 9.96.63.5 1.07.79.6 1.7-.73 1.42-1.25 3-1.99 4.36-5.56 10.25-8.3 21.32-9.67 32.76-1.9 15.88-.04 31.37 5.53 46.37Zm-85.98-3.97c.02.31.05.61.1.92-.05-.31-.09-.62-.1-.92Zm.2-57.63c0-.07.01-.14.01-.2 0 .07 0 .14-.01.2Zm-.38 1.67c.03-.13.06-.26.1-.39-.03.13-.07.26-.1.39Zm.22-.83v.01-.01Zm.12-.57s-.01.08-.02.11c0-.04.01-.08.02-.11Zm-.38-7.95c-.03.1-.06.19-.1.26-.03.04-.05.08-.09.11.03-.03.06-.07.09-.11.04-.07.08-.16.1-.26Zm66.95-28.77c-.26.11-.51.23-.77.34.26-.11.52-.23.77-.34Zm-3.03 1.11.15-.03-.15.03Zm130.92 153.45c.13.07.26.09.36.06a.44.44 0 0 1-.36-.06Zm3.21-.77c.14 0 .28.01.42.02-.14 0-.28 0-.42-.02Zm.42.02c.97.02 1.9-.1 2.76-.47-.87.37-1.8.49-2.76.47Zm60.83-47.46c-7.25 14.2-17.73 25.45-31.02 34.16-7.85 5.14-16.37 8.82-25.3 11.6-2.12.31-4.2.76-6.2 1.56.28.04.57.07.85.09-.28-.02-.56-.06-.85-.09-.37.05-.73.11-1.1.16-.49-.08-.93-.02-1.3.34h-.21l-.2.04c-6.17.87-12.36 1.52-18.62 1.33-23.27-.69-43.33-9.12-60.3-24.98-1.86-1.73-3.61-3.58-5.41-5.37-.33 1.07.26 1.79.8 2.53.1.13.19.27.28.41a9.95 9.95 0 0 0-.28-.41c-.54-.74-1.13-1.46-.8-2.53h-.03c-.15-.54-.49-.94-.97-1.21-4.81-5.91-9.12-12.15-12.44-19.03-11.14-23.11-12.6-46.91-4.92-71.3 1.65-5.25 3.77-10.33 6.62-15.27 2.56 2.62 4.65 5.31 6.6 8.14 2.98 4.33 5.15 9.08 7.19 13.89 0 .07-.04.16-.01.21 2.48 5.31 1.79 10.76 1.24 16.38-2.07 21.36 4.8 39.73 19.73 54.98 10.23 10.45 22.73 16.88 37.24 19.13 11.95 1.85 23.41-.07 34.43-4.93 1.98-1.44 4.37-2.09 6.47-3.29 11.84-6.77 20.27-16.68 26.26-28.79 1.05-2.13 1.92-4.35 2.92-6.64h-82.14c-1.21-.19-.86-1.14-.86-1.85-.02-6.6.06-13.2-.05-19.8-.03-1.85.56-2.23 2.31-2.22 35.72.08 71.44.09 107.16.11.86 0 1.71-.07 2.57-.11.23.21.45.43.68.64-.37 1.38-.31 2.79-.23 4.19-.94 13.29-4.01 26.01-10.1 37.93Zm10.32-38.44c.4-1.2.17-2.44.02-3.68.15 1.23.38 2.47-.02 3.68Z" style="stroke-width:0;fill:url(#Degradado_sin_nombre_3)"/></svg>