<svg xmlns="http://www.w3.org/2000/svg" id="Capa_1" data-name="Capa 1" viewBox="0 0 592.76 139.6"><defs><style>.cls-2,.cls-3{stroke-width:0}.cls-2{fill:#e83c44}.cls-3{fill:#fff}</style></defs><path d="M165.01 10.21c7.4 0 16.37.19 25.32-.08 4.27-.13 7.37.33 6.63 5.93 5.28-.41 5.85 2.62 5.52 6.58-.24 2.98.14 6-.1 8.98-.29 3.69 1.29 5.23 5.4 5.03-.29-8.57 6.83-10.78 12.65-14.03 8.71-4.86 17.56-9.49 26.37-14.17 1.26-.67 2.65-1.12 4.53-1.89.26 2.86.46 5.1.69 7.73 1.64-.44 2.99-.81 4.37-1.17.41.47.98.82 1 1.19.13 3.49-.08 7.01.35 10.46.16 1.31 1.48 3.15 2.66 3.53 2.09.67 4.17.29 4.63-2.83.84-5.76 2.17-11.44 2.97-17.2.43-3.09 1.75-4.29 4.85-4.28 22.47.07 44.93.07 67.4.02 2.73 0 4.49.77 4.89 3.71.1.74.65 1.96 1.1 2.01 5.28.58 4.55 4.93 5.2 8.26 1.66 8.59 4.37 10.46 13.29 10.3 13.77-.24 27.55.17 41.32-.04 16.91-.26 33.82-.7 50.72-1.4 8.47-.35 16.54.59 23.3 4.37 13.56-11.17 29.45-16.96 44.55-26.11.44 3.37.73 5.57 1.06 8.12 1.5-.32 2.87-.61 4.96-1.06v15.58h24.95c20.2-.01 37.09 16.89 37.09 37.13 0 14.98-.1 29.96.09 44.93.05 3.73-1.1 4.89-4.82 4.82-12.48-.21-24.96-.15-37.44-.07-6.2.04-11.95-2.98-18.74-.39-5.08 1.94-11.51.47-17.33.32-7.57-.19-11.25-2.1-20.01-9.91-20.94 14.92-40.7 13.35-59.55-5.02-3.03 9.08-6.07 17.64-8.7 26.34-1.06 3.51-2.81 4.67-6.41 4.59-9.48-.23-18.97-.07-28.46-.09-1.61 0-3.22-.15-5.07-.24v-5.52c-1.95-.38-3.69-.71-6.2-1.2 1.02-5.57 2.01-11.01 2.82-15.4-7.72 2.12-15.62 5.77-23.66 6.09-7.93.31-15.99-2.76-24.47-4.44 0 3.59-.11 8.34.04 13.07.09 2.97-.98 4.16-4.04 4.14-11.81-.09-23.63-.01-35.45 0-.5 0-1.03.05-1.48-.11-.59-.21-1.62-.74-1.58-.9 1.54-5.82-7.11-4.22-6.8-10.63.95-19.76.37-39.59.38-59.4 0-1.3-.13-2.6-.23-4.38h-14.84c0 5.02-.19 9.95.05 14.85.23 4.68-.51 7.96-6.37 6.89-.93-.17-2 .44-3.5.81 6.25 3.25 6.29 3.25 5.43 10.67-1.01 8.76-2.18 17.5-3.1 26.26-.32 3.06-1.47 4.52-4.69 4.29-8.59-.6-17.18-1.17-25.78-1.52-2.76-.11-5.54.71-8.31.72-14.15.08-28.29.12-42.44-.04-3.22-.04-5.04.73-6.34 3.96-5.23 12.98-17.62 20.64-31.6 21.14-14.06.51-26.82-1.88-37.08-12.35-.47-.47-1.44-.63-2.18-.63-30.9.08-61.8.14-92.7.38-4.11.03-6.98-.47-6.26-5.78-5.4.46-5.86-2.58-5.84-6.82C.17 80.52.19 46.74 0 12.96c-.03-4.79 1.36-6.38 6.17-6.29 13.14.26 26.29-.06 39.44.11 11.17.14 21.11 3.99 30.19 11.72C81.51 12.36 87.03 6.43 93.01 0c3.18 3.07 5.7 5.4 8.09 7.85 6.98 7.13 13.81 14.41 20.96 21.36 1.37 1.33 3.94 1.95 5.97 1.98 7.98.12 15.96-.29 23.94-.16 3.44.06 4.83-.89 4.57-4.47-.27-3.64-.34-7.35.07-10.97.22-1.96.58-2.42 1.76-4.11.88-1.26 2.06-.93 2.44-1.07m267.53 78.17c19.22 21.41 39.38 22.88 61.4 5.93 5.86 10.39 15.41 12.02 25.91 11.43 1.82-.1 3.67.1 5.49-.04 2.9-.22 6.5 1.43 8-2.9.11-.32 1.64-.55 2.21-.25 9.1 4.74 18.91 2.86 28.47 3.12 7.92.22 15.86.04 23.93.04.2-1.38.42-2.17.42-2.97 0-15.48.27-30.96-.13-46.43-.41-16.2-11.35-26.3-27.59-26.3-9.15 0-18.31-.27-27.45 0-4.65.14-6.67-1.08-6.21-6.09.44-4.67.09-9.41.09-15.1-10.7 5.72-20.49 10.61-29.91 16.13-3.95 2.31-7.14 5.94-10.67 8.97.37.86 0 .96-.27.84-.76-.32-1.5-.71-2.23-1.1-8.73-4.63-17.89-5.94-27.54-3.58-.96.24-1.96.52-2.93.51-11.46-.18-22.92-.58-34.38-.52-2.86.02-5.72 1.47-8.93 2.37-1.25-.57-3.31-2.3-5.41-2.36-9.98-.29-19.97-.17-29.95-.08-2.36.02-4.73.85-7.05.68-4.45-.34-8.84-1.36-13.29-1.65-2.63-.18-3.86-.99-4.3-3.66-.86-5.25-2.15-10.43-3.03-15.68-.45-2.69-1.75-3.53-4.36-3.52-21.3.07-42.6.08-63.9 0-2.89-.01-4.1 1.01-4.56 3.88-1.34 8.37-2.94 16.7-4.48 25.04-.27 1.49-.77 2.93-1.16 4.39-.5-.02-1-.05-1.5-.07-.31-2.78-.63-5.56-.99-8.77-2.61 0-4.94-.23-7.21.05-4.47.56-5.89-1.27-5.57-5.63.34-4.72.08-9.48.08-14.98-2.29 1.04-3.79 1.61-5.2 2.36-7.63 4.07-15.26 8.14-22.86 12.28-5.76 3.14-11.34 6.47-11.32 14.24 0 .12-.2.25-.48.57-4.68-.8-9.5-1.62-14.99-2.55v-24.6h-21.5q-13.98 0-13.9 14.07c.03 6.63.03 6.61-6.58 6.6-13.87 0-28.06-1.71-40.22 7.49-.08.06-.3-.07-.78-.2-2.05-5.66-.44-10.4 3.62-13.36-7.52-7.83-14.7-15.32-22.35-23.28-4.77 4.96-9.57 9.8-14.18 14.82-2.05 2.23-3.32 2.35-6.14.55-5.37-3.43-11.22-7.81-17.17-8.32-17-1.44-34.15-1.14-51.24-1.49-.26 0-.53.37-.9.66v107.93h40.83c.45-1.79.82-3.28 1.19-4.76 2.77 6.39 8.15 5.11 13.01 5.12 7.49.01 14.98.02 22.47.02h15.49c-2.08-4.44-3.75-8.01-5.56-11.88h11.62c-7.03 5.53-2.36 8.97.43 12 10.6 11.54 24.28 14.63 39.18 12.47 13-1.88 22.31-9.12 26.84-21.72 1.07-2.96 2.78-3.57 5.62-3.54 14.31.12 28.62.14 42.93 0 2.83-.03 5.68-1.45 8.46-1.26 7.06.48 14.06 1.86 21.13 2.22 7.97.4 8.06.1 9.07-8.04 1.08-8.69 2-17.4 3.02-26.45-2.13-.15-3.58-.38-5.03-.32-2.84.11-4.32-1.37-3.57-3.91.4-1.36 2.22-2.94 3.64-3.22 2.66-.51 5.49-.15 8.65-.15 0-6.09.24-11.41-.08-16.7-.26-4.27 1.41-5.53 5.48-5.28 4.97.3 10.01.38 14.97-.02 4.61-.37 5.52 1.45 5.48 5.69-.19 21.3-.08 42.6-.05 63.9 0 1.91.18 3.82.28 5.8h38.12V97.35c23.66 14.47 43.18 10.54 60.03-10.46 2.95 11.99-3.11 22.91-3.49 34.85 9.75 0 19.21-.22 28.65.1 4.04.14 5.82-1.05 6.98-5 2.72-9.2 6.03-18.23 9.43-28.28Z" style="stroke-width:0"/><path d="M428.34 88.58c-3.4 10.05-6.71 19.08-9.43 28.28-1.17 3.94-2.95 5.14-6.98 5-9.44-.33-18.91-.1-28.65-.1.38-11.94 6.43-22.85 3.49-34.85-16.85 21-36.37 24.93-60.03 10.46v20.67h-38.12c-.1-1.98-.28-3.89-.28-5.8-.03-21.3-.14-42.6.05-63.9.04-4.25-.87-6.07-5.48-5.69-4.96.4-9.99.32-14.97.02-4.07-.24-5.73 1.01-5.48 5.28.32 5.28.08 10.6.08 16.7-3.16 0-5.99-.36-8.65.15-1.41.27-3.24 1.86-3.64 3.22-.74 2.54.73 4.02 3.57 3.91 1.45-.06 2.9.17 5.03.32-1.03 9.05-1.95 17.76-3.02 26.45-1.01 8.14-1.1 8.44-9.07 8.04-7.06-.36-14.07-1.74-21.13-2.22-2.78-.19-5.63 1.24-8.46 1.26-14.31.14-28.62.11-42.93 0-2.83-.02-4.55.58-5.62 3.54-4.53 12.6-13.84 19.84-26.84 21.72-14.9 2.16-28.58-.92-39.18-12.47-2.79-3.03-7.46-6.47-.43-12H90.55c1.81 3.87 3.49 7.44 5.56 11.88H80.62c-7.49 0-14.98 0-22.47-.02-4.86 0-10.23 1.27-13.01-5.12-.37 1.49-.74 2.98-1.19 4.76H3.12V10.12c.38-.29.64-.66.9-.66 17.09.35 34.24.05 51.24 1.49 5.95.5 11.8 4.89 17.17 8.32 2.82 1.8 4.09 1.68 6.14-.55 4.61-5.01 9.41-9.86 14.18-14.82 7.65 7.97 14.83 15.45 22.35 23.28-4.06 2.96-5.67 7.7-3.62 13.36.48.13.7.26.78.2 12.16-9.21 26.35-7.5 40.22-7.49 6.62 0 6.62.02 6.58-6.6q-.07-14.08 13.9-14.07h21.5V37.2c5.49.93 10.31 1.75 14.99 2.55.28-.32.48-.45.48-.57-.02-7.77 5.56-11.1 11.32-14.24 7.59-4.14 15.22-8.22 22.86-12.28 1.41-.75 2.91-1.33 5.2-2.36 0 5.5.27 10.26-.08 14.98-.32 4.36 1.1 6.19 5.57 5.63 2.27-.28 4.6-.05 7.21-.05.36 3.2.68 5.98.99 8.77.5.02 1 .05 1.5.07.39-1.46.89-2.91 1.16-4.39 1.54-8.34 3.14-16.67 4.48-25.04.46-2.87 1.67-3.89 4.56-3.88 21.3.09 42.6.08 63.9 0 2.61 0 3.91.83 4.36 3.52.87 5.25 2.17 10.43 3.03 15.68.44 2.67 1.66 3.48 4.3 3.66 4.45.3 8.84 1.31 13.29 1.65 2.32.18 4.7-.66 7.05-.68 9.98-.09 19.97-.21 29.95.08 2.11.06 4.16 1.78 5.41 2.36 3.22-.9 6.07-2.35 8.93-2.37 11.46-.06 22.92.34 34.38.52.97.02 1.97-.27 2.93-.51 9.64-2.36 18.81-1.05 27.54 3.58.73.39 1.47.78 2.23 1.1.27.11.64.02.27-.84 3.53-3.03 6.72-6.65 10.67-8.97 9.42-5.52 19.21-10.41 29.91-16.13 0 5.68.34 10.42-.09 15.1-.47 5.01 1.55 6.23 6.21 6.09 9.14-.28 18.3 0 27.45 0 16.25 0 27.18 10.1 27.59 26.3.39 15.47.13 30.95.13 46.43 0 .8-.22 1.59-.42 2.97-8.07 0-16 .17-23.93-.04-9.56-.26-19.37 1.62-28.47-3.12-.57-.3-2.1-.07-2.21.25-1.5 4.32-5.11 2.68-8 2.9-1.82.14-3.66-.06-5.49.04-10.49.59-20.04-1.04-25.91-11.43-22.02 16.95-42.17 15.48-61.4-5.93Zm-392.59-9.1 1.44-.39c.78 1.1 1.68 2.13 2.32 3.31 4.38 8.02 8.61 16.13 13.14 24.07.84 1.47 2.78 3.21 4.28 3.27 8.11.32 16.23.15 24.89.15-.7-1.65-1.06-2.71-1.58-3.69-4.98-9.22-9.78-18.55-15.07-27.59-2.35-4.01-2.1-6.3 1.55-9.56 9.36-8.36 12.82-18.85 8.59-31.12-4.13-11.98-13.14-18.53-25.26-19.64-11.72-1.07-23.6-.6-35.4-.49-1.17.01-3.2 2.15-3.32 3.45-.4 4.12-.06 8.3-.06 12.46 0 23.96.02 47.93-.11 71.89-.02 3.24 1 4.53 4.27 4.37 3.82-.19 7.65-.01 11.48-.05 10.19-.09 8.77.8 8.85-8.77.07-7.22.01-14.45.01-21.68Zm127.36-37.53c-12.07 0-22.19-.37-32.28.11-8.77.42-18.51 8.83-20.95 17.04-5.91 19.89 5.27 35.69 25.87 36.57.66.03 1.42-.18 1.97.08 1.4.66 3.66 1.35 3.83 2.33.24 1.45-.57 3.69-1.72 4.66-3.58 3.02-7.95 3.3-12.24 1.79-3.09-1.09-5.98-2.73-9.44-4.34-3.29 3.94-6.62 7.93-10.3 12.34 2.41 1.96 4.21 3.65 6.22 5.02 7.7 5.21 16.41 5.94 25.35 5.3 15.19-1.08 28.77-17.25 18.98-34-1.56-2.66-1.43-4.68.1-7.27 3.98-6.77 5.77-14.52 2.19-21.45-3.36-6.5-4.4-11.72 2.43-18.17Zm175.91-7.85c-1.2-6.23-1.97-11.33-3.28-16.27-.32-1.19-2.41-2.72-3.7-2.73-16.97-.19-33.94-.17-50.9-.06-1.18 0-3.19 1.04-3.39 1.92-1.25 5.43-2.1 10.95-3.21 17.15 5.64 0 10.58-.01 15.53 0 6.56.02 6.63.11 6.62 6.73 0 .5-.02 1-.02 1.5-.01 20.96-.07 41.92.07 62.88.01 1.54 1.36 4.36 2.22 4.41 6.21.38 12.45.2 19.12.2v-6.77c0-21.13.09-42.25-.08-63.38-.03-4.08 1.22-5.8 5.36-5.64 4.93.19 9.87.05 15.65.05Zm12.97 63.45c16.68-.11 30.08-13.31 30.1-29.66.02-17.15-13.18-30.22-30.46-30.14-17.1.07-29.6 13.26-29.41 31.03.17 15.83 13.67 28.88 29.77 28.78Zm139.2-29.58c.04-17.39-12.78-30.24-30.16-30.23-16.62 0-29.31 12.87-29.5 29.9-.18 16.62 13.32 30 30.2 29.96 16.18-.05 29.42-13.36 29.46-29.62ZM185.98 97.36v-5.34c0-6.98-.04-13.96.03-20.94.07-6.94 1.9-10.19 5.8-9.75 5.83.65 5.44 5.38 5.48 9.53.08 8.6.02 17.2.02 26.5 5.19 0 9.65.16 14.07-.13.91-.06 2.45-1.78 2.46-2.75.14-11.46.43-22.94-.12-34.38-.4-8.36-6.62-13.78-14.98-13.43-4.07.17-8.08 1.91-12.6 3.07-.06-1.04-.2-2.61-.21-4.18-.02-6.15-.21-12.31.1-18.44.23-4.58-.94-6.9-6.04-6.23-2.94.39-6.03-.29-8.94.21-1.36.24-3.46 2.13-3.47 3.29-.21 23.09-.22 46.19-.02 69.29.01 1.24 2.09 3.42 3.35 3.53 4.75.42 9.55.17 15.07.17Zm249.85-59.09h-9.03q-11.85.03-15.29 11.52c-.85 2.83-1.79 5.63-2.69 8.44-.5-.08-1-.15-1.5-.23-2.44-5.43-4.8-10.9-7.4-16.25-.65-1.33-2.02-3.18-3.16-3.25-5.54-.34-11.12-.15-17.33-.15.69 2.34 1.05 3.76 1.52 5.13 4.87 14.14 9.91 28.22 14.52 42.44 1.07 3.29 1.17 7.12.8 10.6-.57 5.38-1.94 10.67-3.14 16.88 4.81 0 8.92-.23 12.99.07 3.79.28 5.54-1.07 6.7-4.79 4.24-13.64 8.89-27.15 13.34-40.72 3.14-9.57 6.23-19.16 9.64-29.68Zm118.32 19.62c-3.59.27-7.22.3-10.77.86-12.51 2.01-18.4 10.66-16.41 23.83 1.62 10.74 10.05 16.37 22.08 14.67 1.96-.28 3.86-.96 5.8-1.39.94-.2 2.37-.7 2.8-.28 3.97 3.92 8.83 1.32 13.21 1.99 3.79.59 4.78-1.34 4.73-4.9-.19-12.13-.06-24.26-.14-36.38-.07-9.53-5.01-16.09-14.54-17.17-8.31-.94-16.81-.2-25.79-.2-.32 4.44-.64 8.95-.96 13.51q19.35.21 19.99 5.46Zm-39.53-34.22c-1.5.43-2.06.45-2.43.72-5.49 4.09-14.62 3.77-15.85 13.07-.05.38-1.08.62-1.63.95-2.13 1.26-4.67 14.06-3.09 15.93.38.45 1.12.79 1.72.83 3.56.27 3.58 2.8 3.58 5.38 0 8.31-.08 16.62.02 24.92.1 8.05 4.43 12.09 13.68 12.06 11.1-.03 9.98 2.2 11.26-10.14.15-1.49.71-3.06.4-4.43-.33-1.42-1.27-3.52-2.33-3.8-4.08-1.06-5.18-3.68-5.07-7.42.08-2.99 0-5.98.01-8.97 0-7.27.02-7.5 7.4-7.35 4.11.08 5.91-1.16 5.3-5.35-.14-.98-.02-1.99-.04-2.99-.1-8.56-.1-8.7-8.66-8.69-3.32 0-4.46-1.23-4.32-4.39.15-3.26.03-6.53.03-10.36ZM217.8 55.68c6.02-.47 5.87 3.24 5.82 7.15-.12 8.14-.33 16.29.08 24.41.14 2.71 1.31 6.15 3.25 7.83 5.34 4.63 12.33 3.89 18.55 2.83 1.51-.26 2.07-6.46 2.94-9.96.4-1.6.8-3.31.63-4.91-.11-1.04-1.11-2.69-1.94-2.85-4.99-.93-5.73-4.26-5.52-8.5.18-3.65.17-7.31.01-10.96-.14-3.36 1.12-4.67 4.61-4.75 7.88-.17 7.88-.33 7.87-8.14 0-1.5-.12-3 .02-4.48.27-2.82-.97-3.99-3.73-3.82-1.49.09-2.99-.04-4.48.06-3.58.23-5.19-1.21-4.9-4.96.25-3.23.05-6.49.05-10.72-5.28 2.79-9.32 5.42-13.72 7.12-4.83 1.86-4.05 7.48-8.03 10.46-2.51 1.88-1.11 8.99-1.49 14.18ZM102.89 97.57V92.2c.02-12.95.03-25.9.05-38.85q.01-12.66-12.42-12.6c-1.16 0-2.33.07-3.48-.06-2.73-.31-3.97.73-3.97 3.58.03 16.6-.09 33.21.12 49.81.01 1.18 2.12 3.25 3.38 3.34 5.11.38 10.27.16 16.34.16Zm.43-70.74c-3.45-3.81-6.62-7.32-8.95-9.89-3.99 3.1-7.75 6.02-11.4 8.85 3.83 4.03 7.08 7.45 10.65 11.21 3.48-3.65 6.76-7.09 9.7-10.17Z" class="cls-3"/><path d="M35.75 79.48c0 7.23.05 14.45-.01 21.68-.09 9.57 1.33 8.67-8.85 8.77-3.83.04-7.66-.14-11.48.05-3.27.16-4.29-1.12-4.27-4.37.13-23.96.1-47.93.11-71.89 0-4.16-.34-8.35.06-12.46.13-1.3 2.15-3.44 3.32-3.45 11.81-.11 23.68-.58 35.4.49 12.12 1.1 21.13 7.66 25.26 19.64 4.23 12.27.77 22.76-8.59 31.12-3.65 3.26-3.89 5.55-1.55 9.56 5.29 9.04 10.09 18.37 15.07 27.59.53.97.88 2.04 1.58 3.69-8.66 0-16.79.17-24.89-.15-1.49-.06-3.43-1.8-4.28-3.27-4.53-7.94-8.76-16.04-13.14-24.07-.64-1.17-1.54-2.21-2.32-3.31l-1.44.39Zm.02-29.32c0 2.98-.21 5.99.11 8.94.12 1.13 1.3 2.84 2.28 3.06 5.29 1.23 11.92-3.34 12.84-8.56 1.44-8.14-2.34-14.8-9-15.83-5.01-.77-6.13.19-6.23 5.41-.04 2.32 0 4.64 0 6.96ZM163.11 41.95c-6.83 6.45-5.79 11.67-2.43 18.17 3.58 6.93 1.79 14.68-2.19 21.45-1.52 2.59-1.65 4.61-.1 7.27 9.79 16.75-3.78 32.92-18.98 34-8.94.64-17.64-.09-25.35-5.3-2.02-1.37-3.81-3.06-6.22-5.02 3.68-4.41 7.01-8.4 10.3-12.34 3.46 1.62 6.36 3.26 9.44 4.34 4.3 1.52 8.66 1.24 12.24-1.79 1.15-.97 1.97-3.21 1.72-4.66-.16-.97-2.43-1.67-3.83-2.33-.55-.26-1.31-.05-1.97-.08-20.6-.88-31.78-16.68-25.87-36.57 2.44-8.21 12.18-16.62 20.95-17.04 10.08-.48 20.21-.11 32.28-.11Zm-19.99 27.27c.21-4.43-3.47-8.43-7.89-8.55-4.46-.13-7.86 3.04-8.15 7.6-.3 4.58 3.22 8.53 7.7 8.66 4.11.12 8.15-3.62 8.34-7.71ZM339.02 34.1c-5.78 0-10.72.15-15.65-.05-4.14-.16-5.39 1.55-5.36 5.64.17 21.13.08 42.25.08 63.38v6.77c-6.67 0-12.91.18-19.12-.2-.86-.05-2.2-2.87-2.22-4.41-.14-20.96-.08-41.92-.07-62.88 0-.5.02-1 .02-1.5 0-6.62-.06-6.71-6.62-6.73-4.95-.02-9.89 0-15.53 0 1.11-6.2 1.95-11.72 3.21-17.15.2-.88 2.21-1.91 3.39-1.92 16.97-.12 33.94-.13 50.9.06 1.29.01 3.38 1.54 3.7 2.73 1.31 4.95 2.08 10.04 3.28 16.27Z" class="cls-2"/><path d="M351.99 97.55c-16.1.1-29.6-12.95-29.77-28.78-.19-17.77 12.31-30.95 29.41-31.03 17.28-.07 30.48 12.99 30.46 30.14-.02 16.35-13.42 29.55-30.1 29.66Zm-11.16-30c.02 5.91 5.33 11.14 11.21 11.04 5.94-.1 10.94-5.35 10.86-11.4-.09-6.14-5.17-11.12-11.22-11-6.16.12-10.86 5.05-10.84 11.35ZM491.19 67.97c-.04 16.26-13.28 29.58-29.46 29.62-16.88.05-30.37-13.34-30.2-29.96.18-17.03 12.88-29.9 29.5-29.9 17.38 0 30.2 12.85 30.16 30.23Zm-18.95-.38c.03-6.49-4.88-11.47-11.24-11.39-5.84.07-10.93 5.29-10.97 11.25-.04 5.86 5.09 10.97 11.14 11.1 6.03.13 11.04-4.83 11.08-10.95ZM185.98 97.36c-5.51 0-10.32.25-15.07-.17-1.26-.11-3.33-2.29-3.35-3.53-.2-23.09-.19-46.19.02-69.29.01-1.16 2.11-3.05 3.47-3.29 2.9-.5 6 .18 8.94-.21 5.1-.67 6.27 1.65 6.04 6.23-.31 6.13-.12 12.29-.1 18.44 0 1.57.15 3.14.21 4.18 4.52-1.15 8.53-2.9 12.6-3.07 8.36-.35 14.58 5.08 14.98 13.43.55 11.44.26 22.92.12 34.38-.01.97-1.54 2.69-2.46 2.75-4.42.29-8.87.13-14.07.13 0-9.31.06-17.91-.02-26.5-.04-4.15.35-8.88-5.48-9.53-3.91-.43-5.74 2.81-5.8 9.75-.07 6.98-.03 13.96-.03 20.94v5.34ZM435.83 38.27c-3.42 10.52-6.5 20.11-9.64 29.68-4.46 13.57-9.1 27.08-13.34 40.72-1.15 3.71-2.91 5.06-6.7 4.79-4.07-.3-8.18-.07-12.99-.07 1.2-6.21 2.57-11.5 3.14-16.88.37-3.48.27-7.31-.8-10.6-4.61-14.22-9.65-28.3-14.52-42.44-.47-1.37-.83-2.79-1.52-5.13 6.21 0 11.78-.18 17.33.15 1.14.07 2.51 1.92 3.16 3.25 2.6 5.35 4.95 10.82 7.4 16.25.5.08 1 .15 1.5.23.9-2.81 1.84-5.61 2.69-8.44q3.45-11.48 15.29-11.52h9.03ZM554.15 57.89q-.64-5.25-19.99-5.46c.32-4.55.64-9.06.96-13.51 8.98 0 17.48-.74 25.79.2 9.53 1.08 14.48 7.64 14.54 17.17.08 12.13-.05 24.26.14 36.38.05 3.57-.94 5.49-4.73 4.9-4.38-.68-9.24 1.92-13.21-1.99-.43-.42-1.86.07-2.8.28-1.94.42-3.84 1.11-5.8 1.39-12.03 1.7-20.46-3.94-22.08-14.67-1.99-13.16 3.9-21.82 16.41-23.83 3.54-.57 7.18-.59 10.77-.86Zm-3.32 13.57c-3.58.07-6.69 3.27-6.57 6.75.12 3.55 3.31 6.69 6.79 6.68 3.38-.02 6.53-3.32 6.56-6.89.03-3.53-3.16-6.6-6.77-6.53ZM514.62 23.67c0 3.83.12 7.1-.03 10.36-.15 3.16.99 4.4 4.32 4.39 8.56-.01 8.56.13 8.66 8.69.01 1-.11 2.01.04 2.99.62 4.19-1.19 5.44-5.3 5.35-7.39-.15-7.39.08-7.4 7.35 0 2.99.07 5.98-.01 8.97-.1 3.74.99 6.35 5.07 7.42 1.07.28 2.01 2.38 2.33 3.8.32 1.37-.24 2.94-.4 4.43-1.28 12.34-.16 10.11-11.26 10.14-9.25.03-13.59-4.01-13.68-12.06-.1-8.31-.02-16.62-.02-24.92 0-2.59-.02-5.12-3.58-5.38-.6-.04-1.34-.38-1.72-.83-1.58-1.87.95-14.67 3.09-15.93.56-.33 1.58-.57 1.63-.95 1.23-9.3 10.36-8.98 15.85-13.07.37-.28.93-.29 2.43-.72ZM217.8 55.68c.38-5.19-1.02-12.3 1.49-14.18 3.98-2.98 3.2-8.59 8.03-10.46 4.4-1.7 8.45-4.33 13.72-7.12 0 4.22.2 7.49-.05 10.72-.29 3.76 1.32 5.19 4.9 4.96 1.49-.1 2.99.03 4.48-.06 2.76-.17 3.99.99 3.73 3.82-.14 1.48-.02 2.99-.02 4.48.01 7.81.02 7.97-7.87 8.14-3.49.08-4.75 1.39-4.61 4.75.15 3.65.16 7.31-.01 10.96-.2 4.24.53 7.57 5.52 8.5.83.15 1.83 1.8 1.94 2.85.17 1.6-.23 3.31-.63 4.91-.87 3.5-1.43 9.7-2.94 9.96-6.22 1.06-13.21 1.8-18.55-2.83-1.94-1.68-3.11-5.12-3.25-7.83-.41-8.12-.2-16.27-.08-24.41.06-3.91.2-7.62-5.82-7.15ZM102.89 97.57c-6.07 0-11.22.22-16.34-.16-1.25-.09-3.36-2.16-3.38-3.34-.2-16.6-.08-33.21-.12-49.81 0-2.85 1.24-3.89 3.97-3.58 1.15.13 2.32.07 3.48.06q12.43-.05 12.42 12.6c-.01 12.95-.03 25.9-.05 38.85v5.37ZM103.32 26.83c-2.94 3.08-6.21 6.52-9.7 10.17-3.58-3.76-6.83-7.18-10.65-11.21 3.64-2.83 7.41-5.75 11.4-8.85 2.33 2.57 5.5 6.08 8.95 9.89Z" class="cls-2"/><path d="M35.76 50.16c0-2.32-.04-4.64 0-6.96.1-5.22 1.22-6.19 6.23-5.41 6.65 1.02 10.44 7.69 9 15.83-.93 5.21-7.55 9.79-12.84 8.56-.98-.23-2.15-1.94-2.28-3.06-.32-2.95-.11-5.96-.11-8.94ZM143.12 69.22c-.19 4.09-4.24 7.83-8.34 7.71-4.48-.13-7.99-4.08-7.7-8.66.3-4.57 3.69-7.73 8.15-7.6 4.42.13 8.1 4.12 7.89 8.55ZM340.83 67.55c-.02-6.3 4.68-11.23 10.84-11.35 6.05-.12 11.13 4.86 11.22 11 .09 6.05-4.91 11.3-10.86 11.4-5.87.1-11.18-5.14-11.21-11.04ZM472.24 67.59c-.03 6.12-5.05 11.08-11.08 10.95-6.05-.13-11.18-5.24-11.14-11.1.04-5.96 5.13-11.18 10.97-11.25 6.36-.08 11.27 4.9 11.24 11.39ZM550.83 71.46c3.62-.07 6.8 3.01 6.77 6.53-.03 3.57-3.18 6.88-6.56 6.89-3.48.02-6.66-3.12-6.79-6.68-.12-3.49 3-6.69 6.57-6.75Z" class="cls-3"/></svg>