<svg xmlns="http://www.w3.org/2000/svg" xmlns:xlink="http://www.w3.org/1999/xlink" id="Capa_1" data-name="Capa 1" viewBox="-0.03 0 595.47 129.15"><defs><linearGradient id="Degradado_sin_nombre_4" x1="24.88" x2="100.79" y1="67.2" y2="-40.51" data-name="Degradado sin nombre 4" gradientUnits="userSpaceOnUse"><stop offset=".35" stop-color="#1d1d1b"/><stop offset="1" stop-color="#4b4c4e"/></linearGradient><linearGradient xlink:href="#Degradado_sin_nombre_4" id="Degradado_sin_nombre_4-2" x1="73.14" x2="131.72" y1="49.16" y2="49.16" data-name="Degradado sin nombre 4"/><linearGradient xlink:href="#Degradado_sin_nombre_4" id="Degradado_sin_nombre_4-3" x1="101.66" x2="131.73" y1="104.03" y2="104.03" data-name="Degradado sin nombre 4"/><linearGradient xlink:href="#Degradado_sin_nombre_4" id="Degradado_sin_nombre_4-4" x1="88.83" x2="131.69" y1="79.41" y2="79.41" data-name="Degradado sin nombre 4"/><style>.cls-3{stroke-width:0}.cls-6{fill:#626465}.cls-3{fill:#2d6db3}.cls-10{fill:#1a65ae}</style></defs><path d="M122.46 0H70.35c-4.01 0-8.02.07-12.03.11H30.53C23.02.07 15.51.03 8.01.03c-.68 0-1.38.16-2.03.37C1.51 1.83-.14 4.84 0 10.98c.03 1.21.35 1.78 1.56 2.25 24.4 9.47 45.73 23.5 63.4 42.9.88.96 1.4 1.26 2.41.15 2.51-2.78 5.14-5.45 7.73-8.16 2.56-2.38 4.94-4.99 7.73-7.06 3.34-2.49 6.66-4.97 9.64-7.88.77.18-.59.41 0 0 11.18-7.78 25.01-14.81 37.71-19.75.58-.23 1.39-.24 1.49-1.22.62-6.28-1.45-12.21-9.21-12.21Z" style="fill:url(#Degradado_sin_nombre_4);stroke-width:0"/><path d="M49.54 80.25c-6.88-8.91-14.44-16.62-22.86-23.48-7.66-6.24-15.89-11.62-24.62-16.2-1.44-.76-2.02-1.55-2-3.19.09-6.61.04-13.23.04-20.05 2.62.67 4.62 2.04 6.67 3.27 8.74 5.24 17.6 10.27 25.54 16.75 9.57 7.82 18.19 16.55 25.78 26.31 1.04 1.34 1.34 2.27.13 3.78-3.18 3.93-5.8 8.26-8.66 12.81ZM.12 45.56c5.3 3.25 9.86 6.72 14.28 10.38 11.16 9.25 20.67 19.96 28.44 32.22.98 1.54 1.21 2.74.34 4.48-2.8 5.62-4.81 11.56-6.81 17.5-.17.52.05 1.4-.81 1.44-.76.03-.85-.79-1.11-1.3C26.69 95.02 15.76 82.42 2.16 72.1.58 70.9.05 69.69.08 67.76c.11-7.24.05-14.48.05-22.2Zm30.57 83.39c-7.98 0-15.74.07-23.51-.03-3.68-.05-6.98-3.54-7-7.47-.07-14.12-.03-28.24-.03-43 15.22 14.09 24.99 30.83 30.54 50.5Zm35.53-19.68c-2.58-5.98-5.23-11.42-8.33-16.63-.42-.71-.04-1.32.25-1.96 2.07-4.52 4.44-8.87 6.9-13.19.88-1.54 1.45-1.68 2.38-.04 2.41 4.24 4.75 8.52 6.76 12.97.35.79.86 1.51.3 2.43-3.09 5.12-5.62 10.52-8.26 16.42Z" class="cls-3"/><path d="M131.68 21.79c0-4.45-.02-4.49-3.98-2.4-9.95 5.26-19.46 11.18-28.01 18.55-6.7 5.28-12.98 10.98-18.36 17.63-2.98 2.69-5.27 5.96-7.7 9.12-.38.49-.77.87-.23 1.56 3.43 4.41 6.38 9.14 9.51 14.02 3.85-4.81 7.59-9.3 11.67-13.51 5.71-5.36 11.56-10.54 17.82-15.25 5.83-3.63 11.42-7.67 17.61-10.69 1.3-.63 1.73-1.37 1.71-2.79-.09-5.41-.04-10.83-.04-16.24Z" style="fill:url(#Degradado_sin_nombre_4-2);stroke-width:0"/><path d="M131.61 103.83V78.92c-5.32 5.19-10.08 10.18-13.89 16-7.38 9.85-12.49 20.79-15.9 32.58-.49 1.7.27 1.65 1.44 1.64 6.55-.02 13.1 0 19.65-.02 5.2-.01 8.63-3.11 8.77-8.29.15-5.66-.03-11.33-.06-17Z" style="fill:url(#Degradado_sin_nombre_4-3);stroke-width:0"/><path d="M80.3 106.12c2.01 6.13 3.27 11.61 4.26 17.17.05.26.03.52.06.78q.67 4.96-4.49 4.96c-1.66 0-3.33-.08-4.98.02-1.54.1-1.75-.57-1.46-1.88 1.56-6.97 3.58-13.79 6.6-21.06Zm-28.19.06c3.07 7.02 4.88 13.72 6.56 20.47.44 1.79.04 2.52-1.96 2.4-2.69-.16-5.4-.04-8.11-.04-.84 0-1.57.04-1.39-1.22 1.05-7.12 2.54-14.13 4.9-21.61Z" class="cls-3"/><path d="M131.57 57.03v-11.1c-4.73 3.15-9.08 6.07-12.93 9.66-5.68 4.29-10.74 9.22-15.35 14.62-4.42 4.58-8.01 9.8-11.79 14.89-2.45 3.3-3.96 6.38-1.11 10.11.16.2.24.46.35.7 2.35 5.39 4.18 10.98 6.09 16.98 5.27-11.15 12.28-20.61 20.34-29.33 4.43-4.07 8.68-8.33 13.61-11.82.72-.51.94-1.11.93-1.97-.07-4.25-.09-8.5-.12-12.76Z" style="stroke-width:0;fill:url(#Degradado_sin_nombre_4-4)"/><text style="font-family:Avenir-Medium,Avenir;font-size:42px;font-weight:500" transform="matrix(1.03 0 0 1 157.27 58.13)"><tspan x="0" y="0" class="cls-10">WEA</tspan><tspan x="95.63" y="0" style="fill:#1a65ae;letter-spacing:-.09em">L</tspan><tspan x="113.57" y="0" class="cls-10">TH</tspan><tspan x="168.8" y="0" style="fill:#1d1d1b"> </tspan><tspan x="180.47" y="0" class="cls-6">STR</tspan><tspan x="253.59" y="0" style="letter-spacing:-.09em;fill:#626465">A</tspan><tspan x="279.3" y="0" class="cls-6">TEGIES</tspan></text><text style="fill:#737a7a;font-family:Avenir-Light,Avenir;font-size:29px;font-weight:300" transform="matrix(1.28 0 0 1 157.27 99.96)"><tspan x="0" y="0">ADVISO</tspan><tspan x="106.4" y="0" style="letter-spacing:-.01em">R</tspan><tspan x="123.22" y="0">Y GROUP</tspan></text></svg>