<svg width="15" height="13" viewBox="0 0 15 13" fill="none" xmlns="http://www.w3.org/2000/svg">
<path d="M8.04885 0.457031C7.91423 0.177734 7.62976 0 7.31735 0C7.00494 0 6.723 0.177734 6.58585 0.457031L4.95267 3.81621L1.30533 4.35449C1.00054 4.4002 0.746547 4.61348 0.65257 4.90547C0.558592 5.19746 0.63479 5.51992 0.853224 5.73574L3.49983 8.35352L2.87501 12.0529C2.82421 12.3576 2.95121 12.6674 3.20266 12.8477C3.45411 13.0279 3.78684 13.0508 4.06116 12.9061L7.31989 11.1668L10.5786 12.9061C10.8529 13.0508 11.1857 13.0305 11.4371 12.8477C11.6886 12.6648 11.8156 12.3576 11.7648 12.0529L11.1374 8.35352L13.784 5.73574C14.0024 5.51992 14.0812 5.19746 13.9847 4.90547C13.8881 4.61348 13.6367 4.4002 13.3319 4.35449L9.68202 3.81621L8.04885 0.457031Z" fill="#FFD337"/>
</svg>
