<svg xmlns="http://www.w3.org/2000/svg" width="1497" height="1055" fill="none"><path fill="#1E1E1E" d="M0 0h1497v1055H0z"/><g clip-path="url(#a)"><path fill="#F9F9F9" d="M1497 0H0v1055h1497V0Z"/><path fill="#EEE" fill-rule="evenodd" d="m1113.6 393.108 12.34-7.019c8.72-5.001 22.93-5.001 31.75 0l187.7 107.861c8.81 5.019 8.81 13.161 0 18.197l-35.61 5.071a32.31 32.31 0 0 1-20.83-4.054L1113.6 411.392c-8.75-5.106-8.75-13.248 0-18.284Z" clip-rule="evenodd" opacity=".08"/><path fill="#E3FFFF" d="M1095.84 311.374c2.58.425 5.14 1.011 7.65 1.754V175.981c.44-13.616 19.1-28.917 20.58-30.707 3.32-4.036 9.19-4.633 15.77-.772l181.28 104.071c10.32 5.931 18.69 20.302 18.69 32.111V488.09c0 5.755-1.97 9.826-5.29 11.844-3.31 2.018-25.38 4.545-29.64 5.018-3.09 1.141-7.06.615-11.34-1.86l-131.69-75.715c-4.81 17.547-9.14 33.217-9.51 33.918a14.401 14.401 0 0 1-5.73 5.458c-8.44 4.842-21.83 5.141-30.86.877v14.037s7.41 23.513 23.97 33.498c17.63 10.686 40.07 9.58 64.69-3.194 23.57-12.283 44.3-14.845 61.56-7.756 23.14 9.476 30.86 32.831 31.18 33.814.32.847.46 1.749.41 2.651a6.545 6.545 0 0 1-.67 2.599 6.525 6.525 0 0 1-1.64 2.127 6.786 6.786 0 0 1-2.35 1.314c-.86.276-1.78.374-2.68.288a6.778 6.778 0 0 1-2.58-.783c-.8-.432-1.5-1.02-2.06-1.729a6.599 6.599 0 0 1-1.21-2.397c0-.193-6.09-18.389-23.51-25.531-13.44-5.509-30.34-3.07-50.25 7.265-36.64 19.003-62.57 11.985-77.86 2.755-18.89-11.388-29.34-44.921-29.34-44.921v-21.214l-7.66-4.299.09-144.78Z"/><path fill="#27AAE1" d="M1311.6 492.827V295.511c0-11.23-7.98-24.917-17.8-30.549l-172.53-99.106c-4.53-2.614-10.21-3.228-13.37-1.842 3.76-4.896 14.69-16.95 16.17-18.74 3.32-4.036 9.19-4.633 15.77-.772l181.28 104.071c10.32 5.931 18.69 20.302 18.69 32.111v207.318c0 5.738-1.97 9.791-5.16 11.792-3.2 2-25.29 4.527-29.54 5.018 3.96-1.456 6.49-5.668 6.49-11.985Z"/><path fill="#67DAFF" d="M1213.17 255.346c38.25 21.934 69.13 75.154 69.13 118.758 0 43.605-30.88 61.274-69.13 39.341a124.36 124.36 0 0 1-31.9-27.216l-37.21-34.392v-57.151c0-43.656 30.93-61.274 69.11-39.34Z"/><path fill="#27AAE1" d="M1231.63 353.579c-3.84-6.411-3.92-13.406-.17-15.622 3.74-2.216 9.88 1.185 13.72 7.597 3.83 6.411 3.91 13.406.17 15.622-3.74 2.216-9.88-1.185-13.72-7.597ZM1180.49 323.759c-3.84-6.412-3.92-13.406-.18-15.622 3.74-2.216 9.89 1.185 13.72 7.596 3.84 6.412 3.92 13.406.18 15.622-3.74 2.216-9.89-1.185-13.72-7.596ZM1101.73 460.12v21.512c0 13.126 11.34 33.533 30.23 44.921 15.29 9.229 41.21 16.248 77.86-2.755 19.91-10.335 36.81-12.774 50.24-7.3 17.43 7.142 23.44 25.338 23.51 25.531a6.66 6.66 0 0 0 2.43 3.366 6.704 6.704 0 0 0 3.96 1.284 6.748 6.748 0 0 0 3.06-.725 6.635 6.635 0 0 0 2.39-2.033 6.55 6.55 0 0 0 1.2-2.894 6.608 6.608 0 0 0-.25-3.121c-.32-.983-8.04-24.338-31.18-33.813-17.27-7.019-37.99-4.457-61.57 7.755-24.69 12.775-46.98 13.88-64.69 3.194-16.56-9.984-23.72-27.023-23.08-33.497v-14.494l-14.11-6.931Z"/><path fill="#67DAFF" d="M1057.04 363.664s16.93 75.978 17.41 77.084a13.59 13.59 0 0 0 6.05 6.159l34.55 19.845c8.94 5.142 23.45 5.142 32.41 0a14.557 14.557 0 0 0 5.71-5.439c.67-1.263 17.96-64.784 17.96-64.784l-114.09-32.865Z"/><path fill="#27AAE1" d="m1047.25 332.027 130.51 26.829 3.35 6.51v16.319c0 7.966-7.53 15.95-22.56 20.108a59.431 59.431 0 0 1-23.28 1.491 59.325 59.325 0 0 1-22.04-7.579l-55.01-31.585c-7.63-4.387-11.37-10.177-11.2-15.933.16-5.404.23-16.16.23-16.16Z"/><path fill="#fff" d="M1058.86 317.147a47.659 47.659 0 0 1 15.71-5.58l17.46-.702a51.168 51.168 0 0 1 20.58 6.124l57.09 33.146c13.81 8.019 14.39 22.039.83 30.462-14.68 9.124-39.33 9.3-54.41.544l-57.07-33.094c-14.46-8.44-14.58-22.372-.19-30.9Z"/><path fill="#67DAFF" d="M1135.24 365.085v-59.063a8.928 8.928 0 0 1 1.92-5.742 9.058 9.058 0 0 1 5.13-3.242 8.835 8.835 0 0 1 3.89.082c1.28.315 2.47.91 3.48 1.741a8.77 8.77 0 0 1 2.39 3.061c.55 1.184.83 2.477.82 3.784v59.66c-.23 1.755-1.97 3.509-5.52 4.474a13.59 13.59 0 0 1-6.61 0c-3.53-.895-5.29-2.667-5.47-4.474-.03 0-.03-.281-.03-.281ZM1075.28 272.367a8.83 8.83 0 0 1 .82-3.785 8.767 8.767 0 0 1 2.39-3.06 8.85 8.85 0 0 1 7.37-1.823 9.116 9.116 0 0 1 5.13 3.245 9.034 9.034 0 0 1 1.92 5.739v59.344c0 1.912-1.76 3.86-5.39 4.825-2.26.597-4.63.597-6.88 0-3.67-.965-5.43-2.913-5.29-4.825-.07 0-.07-59.66-.07-59.66Z"/><path fill="#081E7A" d="M1301.98 506.198c2.95-.351 28.77-3.509 32.24-5.65 3.48-2.141 5.59-6.703 5.59-12.546V280.684c0-12.055-8.59-26.812-19.13-32.866L1139.4 143.677c-6.83-3.913-13.14-3.509-16.9 1.035l-16.15 19.828 1.38 1.088 16.13-19.793c3.18-3.86 8.64-4.088 14.66-.631l181.28 104.141c10.05 5.703 18.25 19.828 18.25 31.339v207.318c0 5.264-1.76 9.142-4.76 11.054-2.38 1.474-20.14 4.036-31.5 5.405l.19 1.737Z"/><path fill="#081E7A" d="M1300.8 506.268a9.99 9.99 0 0 0 5.08-1.316c3.62-2.07 5.63-6.387 5.63-12.125V295.511c0-11.493-8.18-25.548-18.24-31.321l-172.53-99.106c-5.04-2.895-9.84-3.334-13.49-1.246-3.65 2.089-5.61 6.388-5.61 12.143v127.97h1.77v-127.97c0-5.089 1.67-8.861 4.72-10.616 3.05-1.755 7.25-1.334 11.73 1.246l172.62 99.105c9.56 5.493 17.35 18.863 17.35 29.83v197.281c0 5.089-1.76 8.862-4.74 10.616-2.98 1.755-7.25 1.316-11.73-1.245l-126.59-72.68-.88 1.509 126.59 72.68a17.153 17.153 0 0 0 8.32 2.561Z"/><path fill="#081E7A" d="M1286.54 475.421a5.3 5.3 0 0 0 2.69-.702 6.826 6.826 0 0 0 2.35-2.749 6.89 6.89 0 0 0 .62-3.551V296.617a19.913 19.913 0 0 0-2.65-8.886 20.058 20.058 0 0 0-6.38-6.749l-150.3-86.296a7.022 7.022 0 0 0-3.44-1.251 7.092 7.092 0 0 0-3.61.637 6.798 6.798 0 0 0-2.96 6.299v114.056h1.76V200.371c-.1-.906.04-1.823.41-2.66.36-.836.94-1.564 1.67-2.112a5.314 5.314 0 0 1 5.29.614l150.22 86.296a18.087 18.087 0 0 1 5.79 6.046 17.924 17.924 0 0 1 2.43 7.991v171.873c.1.907-.04 1.824-.4 2.661a5.352 5.352 0 0 1-1.68 2.112 5.313 5.313 0 0 1-5.29-.596l-109.02-62.626-.89 1.509 109.06 62.626a8.716 8.716 0 0 0 4.33 1.316Z"/><path fill="#081E7A" d="M1143.67 294.687h1.76c0-20.706 7.06-36.147 19.7-43.429 12.65-7.282 29.86-5.633 48.09 4.843l.89-1.509c-18.8-10.809-36.51-12.529-49.86-4.861-13.35 7.668-20.58 23.583-20.58 44.956ZM1244.65 423.78a36.675 36.675 0 0 0 18.45-4.703c13.28-7.633 20.58-23.6 20.58-44.973h-1.77c0 20.723-7.05 36.147-19.69 43.447-12.65 7.299-29.86 5.615-48.11-4.861a124.15 124.15 0 0 1-31.75-27.04l-1.34 1.141a126.175 126.175 0 0 0 32.12 27.426c11.18 6.352 21.86 9.563 31.51 9.563ZM1243.63 361.857a6.027 6.027 0 0 0 3-.773 7.56 7.56 0 0 0 2.56-3c.57-1.209.8-2.548.68-3.878a21.944 21.944 0 0 0-2.99-9.84 22.031 22.031 0 0 0-7.17-7.409 7.757 7.757 0 0 0-7.78-.667 7.558 7.558 0 0 0-2.55 3.003 7.395 7.395 0 0 0-.67 3.876c.2 3.467 1.22 6.838 2.99 9.836a22.012 22.012 0 0 0 7.15 7.413 9.704 9.704 0 0 0 4.78 1.439Zm-8.7-24.566c1.39.056 2.74.473 3.92 1.21a20.112 20.112 0 0 1 6.54 6.787 20.04 20.04 0 0 1 2.72 9.006c.1 1.006-.07 2.02-.48 2.943a5.891 5.891 0 0 1-1.89 2.321c-.97.425-2.04.588-3.1.471a6.104 6.104 0 0 1-2.93-1.138 20.095 20.095 0 0 1-6.53-6.788 19.908 19.908 0 0 1-2.71-9.004c-.1-1.005.06-2.018.47-2.941a5.887 5.887 0 0 1 1.88-2.323 4.099 4.099 0 0 1 2.11-.562v.018ZM1192.48 332.027a6 6 0 0 0 3-.773 7.514 7.514 0 0 0 3.25-6.878 22.002 22.002 0 0 0-10.16-17.249 7.746 7.746 0 0 0-3.8-1.382 7.738 7.738 0 0 0-3.98.716 7.47 7.47 0 0 0-2.55 3.002 7.502 7.502 0 0 0-.68 3.876 22.058 22.058 0 0 0 2.99 9.836 22.203 22.203 0 0 0 7.15 7.413 9.704 9.704 0 0 0 4.78 1.439Zm-8.69-24.566c1.39.056 2.74.473 3.91 1.21a20.142 20.142 0 0 1 6.55 6.787 19.908 19.908 0 0 1 2.71 9.006c.1 1.006-.06 2.02-.48 2.943a5.782 5.782 0 0 1-1.88 2.321c-.98.425-2.05.588-3.11.471a6.108 6.108 0 0 1-2.92-1.138 20.001 20.001 0 0 1-6.53-6.788 19.908 19.908 0 0 1-2.71-9.004c-.1-1.005.06-2.018.47-2.941a5.862 5.862 0 0 1 1.87-2.323 4.135 4.135 0 0 1 2.12-.562v.018ZM1290.84 547.592c.78 0 1.56-.124 2.31-.369a7.665 7.665 0 0 0 2.6-1.422 7.61 7.61 0 0 0 1.85-2.304c.46-.882.74-1.846.82-2.835.08-.99-.03-1.986-.33-2.932-.34-1-8.17-24.724-31.75-34.357-17.51-7.194-38.48-4.562-62.3 7.791-24.34 12.616-46.4 13.739-63.83 3.229-16.03-9.669-23.28-26.409-22.68-32.673v-14.581h-1.76v14.493c-.67 6.756 6.63 24.075 23.51 34.252 17.99 10.844 40.56 9.756 65.55-3.158 23.35-12.108 43.82-14.705 60.83-7.739 22.76 9.335 30.36 32.304 30.66 33.34a5.7 5.7 0 0 1 .26 2.246 5.83 5.83 0 0 1-2.04 3.941c-.59.492-1.26.864-1.99 1.095-.57.186-1.16.281-1.76.281a5.86 5.86 0 0 1-3.44-1.118 5.821 5.821 0 0 1-2.12-2.918c0-.193-6.17-18.776-24-26.075-13.69-5.615-30.85-3.159-50.99 7.282-36.29 18.828-61.9 11.914-76.99 2.79-18.59-11.213-29.76-31.269-29.81-44.166V460.12h-1.76v21.512c0 13.389 11.53 34.129 30.65 45.623 15.48 9.352 41.72 16.459 78.72-2.738 19.67-10.195 36.32-12.634 49.51-7.229 16.98 7.019 22.93 24.811 22.93 24.987a7.494 7.494 0 0 0 2.78 3.88 7.602 7.602 0 0 0 4.57 1.437Z"/><path fill="#081E7A" d="M1131.25 471.473a34.24 34.24 0 0 0 16.65-3.966 15.366 15.366 0 0 0 6.05-5.791c.69-1.28 15.13-54.395 18.02-64.923l-1.76-.457c-4.74 17.407-17.2 62.959-17.92 64.626a13.533 13.533 0 0 1-5.29 5.071c-8.69 4.983-22.93 4.983-31.53 0l-34.55-19.846a12.83 12.83 0 0 1-5.68-5.755c-.51-1.527-11.57-50.886-17.35-76.909l-1.77.369c2.84 12.704 16.97 76.101 17.46 77.207a14.495 14.495 0 0 0 6.42 6.58l34.55 19.845a34.243 34.243 0 0 0 16.7 3.949Z"/><path fill="#081E7A" d="M1144.3 404.706c5.19.004 10.35-.687 15.35-2.053 14.53-4.036 23.21-11.879 23.21-21.056v-16.319h-1.77v16.319c0 8.142-8.39 15.529-21.92 19.302a58.761 58.761 0 0 1-44.64-6.002l-55-31.584c-7.06-4.071-10.94-9.458-10.76-15.126.18-5.667 0-17.915 0-18.038h-1.76c0 .123.08 12.546 0 17.968-.2 6.352 3.95 12.283 11.64 16.705l55 31.585a61.976 61.976 0 0 0 30.65 8.299Z"/><path fill="#081E7A" d="m1091.57 367.91.9-1.509-32.98-19.144c-6.73-3.913-10.46-9.124-10.47-14.669-.02-5.545 3.63-10.739 10.28-14.687 4.78-2.706 10-4.558 15.43-5.474l-.32-1.755a48.74 48.74 0 0 0-16.01 5.685c-7.21 4.282-11.18 10.037-11.15 16.196.04 6.159 4.06 11.949 11.36 16.178l32.96 19.179ZM1142.86 388.493c10.24 0 20.47-2.387 28.21-7.159 6.71-4.159 10.36-9.809 10.27-15.915-.09-6.107-4.15-11.985-11.11-16.038l-15.87-9.265-.9 1.509 15.87 9.265c6.42 3.737 10.16 9.036 10.25 14.564.08 5.527-3.29 10.528-9.44 14.406-14.25 8.773-38.8 9.089-53.51.526l-8.2-4.755-.88 1.509 8.08 4.773a55.336 55.336 0 0 0 27.23 6.58ZM1134.5 330.71l.9-1.509-22.35-12.967a51.581 51.581 0 0 0-20.95-6.229l-.16 1.755c7.07.55 13.94 2.59 20.16 5.983l22.4 12.967Z"/><path fill="#081E7A" d="M1143.16 371.121c1.19.005 2.37-.143 3.52-.438 3.64-.913 5.89-2.825 6.18-5.264v-59.66c0-1.438-.31-2.86-.92-4.162a9.82 9.82 0 0 0-2.63-3.363 9.753 9.753 0 0 0-8.11-2.003 9.9 9.9 0 0 0-5.64 3.545 9.843 9.843 0 0 0-2.1 6.299v59.063a1.26 1.26 0 0 0 0 .474c.3 2.351 2.5 4.211 6.12 5.123 1.17.283 2.37.413 3.58.386Zm0-73.381a7.9 7.9 0 0 1 5.04 1.754c.92.75 1.66 1.692 2.16 2.761.51 1.068.77 2.235.77 3.416v59.66c-.2 1.509-2.01 2.895-4.85 3.614-2.03.509-4.16.509-6.19 0-2.86-.719-4.66-2.105-4.8-3.702a.625.625 0 0 0 0-.193v-59.028c-.06-1.067.1-2.135.48-3.138.37-1.003.94-1.92 1.68-2.695a7.89 7.89 0 0 1 2.62-1.813 7.896 7.896 0 0 1 3.12-.636h-.03ZM1083.19 338.186c1.24 0 2.48-.159 3.67-.474 3.86-1.018 6.12-3.159 6.05-5.721v-59.308a9.85 9.85 0 0 0-2.11-6.3 9.95 9.95 0 0 0-5.65-3.544 9.753 9.753 0 0 0-4.28.089 9.688 9.688 0 0 0-6.44 5.278 9.516 9.516 0 0 0-.92 4.161v50.325c0 5.65 0 8.176.16 9.299h-.14c-.11 2.545 2.15 4.686 6.01 5.721 1.19.316 2.42.475 3.65.474Zm0-73.698c.54.001 1.07.053 1.59.158a8.14 8.14 0 0 1 4.62 2.939 8.05 8.05 0 0 1 1.71 5.185v59.344c0 1.755-1.76 3.194-4.72 3.983a12.51 12.51 0 0 1-6.44 0c-2.96-.789-4.76-2.298-4.69-3.965v-59.66c-.01-1.182.25-2.35.76-3.419a7.866 7.866 0 0 1 2.17-2.758 7.851 7.851 0 0 1 5.04-1.895l-.04.088Z"/></g><defs><clipPath id="a"><path fill="#fff" d="M0 0h1497v1055H0z"/></clipPath></defs></svg>